G04 #@! TF.FileFunction,Copper,L1,Top,Signal*
%FSLAX46Y46*%
G04 Gerber Fmt 4.6, Leading zero omitted, Abs format (unit mm)*
G04 Created by KiCad (PCBNEW (2015-07-07 BZR 5906)-product) date Tue 25 Aug 2015 18:29:16 CEST*
%MOMM*%
G01*
G04 APERTURE LIST*
%ADD10C,0.100000*%
%ADD11R,1.900000X1.900000*%
%ADD12C,1.900000*%
%ADD13O,1.800000X2.600000*%
%ADD14C,3.000000*%
%ADD15C,2.500000*%
%ADD16O,1.524000X2.540000*%
%ADD17R,1.900000X3.000000*%
%ADD18O,1.900000X3.000000*%
%ADD19C,0.762000*%
%ADD20C,1.016000*%
%ADD21C,0.254000*%
G04 APERTURE END LIST*
D10*
D11*
X33655000Y-96520000D03*
D12*
X33655000Y-91520000D03*
D13*
X42545000Y-88900000D03*
X45085000Y-88900000D03*
X47625000Y-88900000D03*
X50165000Y-88900000D03*
X52705000Y-88900000D03*
X55245000Y-88900000D03*
X57785000Y-88900000D03*
X60325000Y-88900000D03*
X62865000Y-88900000D03*
X65405000Y-88900000D03*
X67945000Y-88900000D03*
X70485000Y-88900000D03*
X73025000Y-88900000D03*
X75565000Y-88900000D03*
X78105000Y-88900000D03*
X80645000Y-88900000D03*
D14*
X37045900Y-88900000D03*
X37045900Y-57899300D03*
X112044480Y-57899300D03*
X112044480Y-88900000D03*
D12*
X24725000Y-79390000D03*
X22225000Y-79390000D03*
X19725000Y-79390000D03*
X24725000Y-64890000D03*
X19725000Y-64890000D03*
D15*
X28825000Y-72390000D03*
X16025000Y-72390000D03*
D12*
X31750000Y-57785000D03*
X31750000Y-67945000D03*
D16*
X87630000Y-53340000D03*
X85090000Y-53340000D03*
X82550000Y-53340000D03*
X74930000Y-53340000D03*
X77470000Y-53340000D03*
X80010000Y-53340000D03*
X69850000Y-53340000D03*
X67310000Y-53340000D03*
X64770000Y-53340000D03*
X59690000Y-53340000D03*
X57150000Y-53340000D03*
X87630000Y-101600000D03*
X85090000Y-101600000D03*
X82550000Y-101600000D03*
X80010000Y-101600000D03*
X77470000Y-101600000D03*
X74930000Y-101600000D03*
X72390000Y-101600000D03*
X69850000Y-101600000D03*
X65786000Y-101600000D03*
X63246000Y-101600000D03*
X60706000Y-101600000D03*
X58166000Y-101600000D03*
X55626000Y-101600000D03*
X53086000Y-101600000D03*
X50546000Y-101600000D03*
X48006000Y-101600000D03*
X62230000Y-53340000D03*
D12*
X43815000Y-101600000D03*
X43815000Y-109855000D03*
D17*
X108585000Y-54610000D03*
D18*
X106045000Y-54610000D03*
X103505000Y-54610000D03*
X100965000Y-54610000D03*
D17*
X21590000Y-53975000D03*
D18*
X19050000Y-53975000D03*
X16510000Y-53975000D03*
D12*
X22860000Y-59690000D03*
X22225000Y-84455000D03*
X31750000Y-84455000D03*
X15875000Y-59690000D03*
X67310000Y-58420000D03*
X67310000Y-71755000D03*
D18*
X97155000Y-54610000D03*
X94615000Y-54610000D03*
D17*
X92075000Y-54610000D03*
D12*
X99060000Y-50800000D03*
X112395000Y-50800000D03*
D19*
X55626000Y-101600000D02*
X55626000Y-100076000D01*
X52070000Y-96520000D02*
X33655000Y-96520000D01*
X55626000Y-100076000D02*
X52070000Y-96520000D01*
X33655000Y-91520000D02*
X38942002Y-91520000D01*
X47625000Y-91440000D02*
X47625000Y-88900000D01*
X46482002Y-92582998D02*
X47625000Y-91440000D01*
X40005000Y-92582998D02*
X46482002Y-92582998D01*
X38942002Y-91520000D02*
X40005000Y-92582998D01*
D20*
X21590000Y-53975000D02*
X21590000Y-51435000D01*
X80010000Y-50800000D02*
X80010000Y-53340000D01*
X78740000Y-49530000D02*
X80010000Y-50800000D01*
X23495000Y-49530000D02*
X78740000Y-49530000D01*
X22860000Y-50165000D02*
X23495000Y-49530000D01*
X21590000Y-51435000D02*
X22860000Y-50165000D01*
X94615000Y-53340000D02*
X94615000Y-49530000D01*
X106045000Y-48895000D02*
X106045000Y-53340000D01*
X104775000Y-47625000D02*
X106045000Y-48895000D01*
X96520000Y-47625000D02*
X104775000Y-47625000D01*
X94615000Y-49530000D02*
X96520000Y-47625000D01*
X106045000Y-53340000D02*
X106045000Y-59690000D01*
X102870000Y-62865000D02*
X96520000Y-62865000D01*
X106045000Y-59690000D02*
X102870000Y-62865000D01*
X29845000Y-62865000D02*
X21590000Y-62865000D01*
X50165000Y-62865000D02*
X34290000Y-62865000D01*
X34290000Y-62865000D02*
X29845000Y-62865000D01*
X65405000Y-62865000D02*
X50165000Y-62865000D01*
X21590000Y-62865000D02*
X19050000Y-60325000D01*
X62230000Y-53340000D02*
X62230000Y-59690000D01*
X65405000Y-62865000D02*
X96520000Y-62865000D01*
X62230000Y-59690000D02*
X65405000Y-62865000D01*
X19050000Y-57150000D02*
X19050000Y-60325000D01*
X19050000Y-53975000D02*
X19050000Y-57150000D01*
X19050000Y-60325000D02*
X19050000Y-62865000D01*
X19050000Y-64215000D02*
X19725000Y-64890000D01*
X19050000Y-62865000D02*
X19050000Y-64215000D01*
X19725000Y-64890000D02*
X19725000Y-73065000D01*
X45085000Y-80010000D02*
X45085000Y-88900000D01*
X41275000Y-76200000D02*
X45085000Y-80010000D01*
X22860000Y-76200000D02*
X41275000Y-76200000D01*
X19725000Y-73065000D02*
X22860000Y-76200000D01*
D19*
X50165000Y-88900000D02*
X50165000Y-90805000D01*
X58166000Y-98806000D02*
X58166000Y-101600000D01*
X50165000Y-90805000D02*
X58166000Y-98806000D01*
X67945000Y-88900000D02*
X67945000Y-94615000D01*
X63246000Y-99314000D02*
X63246000Y-101600000D01*
X67945000Y-94615000D02*
X63246000Y-99314000D01*
X63500000Y-101854000D02*
X63246000Y-101600000D01*
X65786000Y-101600000D02*
X65786000Y-99314000D01*
X70485000Y-94615000D02*
X70485000Y-88900000D01*
X65786000Y-99314000D02*
X70485000Y-94615000D01*
X69850000Y-101600000D02*
X69850000Y-99060000D01*
X73025000Y-95885000D02*
X73025000Y-88900000D01*
X69850000Y-99060000D02*
X73025000Y-95885000D01*
X75565000Y-88900000D02*
X75565000Y-96520000D01*
X72390000Y-99695000D02*
X72390000Y-101600000D01*
X75565000Y-96520000D02*
X72390000Y-99695000D01*
X74930000Y-101600000D02*
X74930000Y-99695000D01*
X78105000Y-96520000D02*
X78105000Y-88900000D01*
X74930000Y-99695000D02*
X78105000Y-96520000D01*
X24725000Y-79390000D02*
X24725000Y-99020000D01*
X80010000Y-104140000D02*
X80010000Y-101600000D01*
X78740000Y-105410000D02*
X80010000Y-104140000D01*
X31115000Y-105410000D02*
X78740000Y-105410000D01*
X24725000Y-99020000D02*
X31115000Y-105410000D01*
X82550000Y-101600000D02*
X82550000Y-104775000D01*
X19685000Y-96520000D02*
X19685000Y-79430000D01*
X30480000Y-107315000D02*
X19685000Y-96520000D01*
X80010000Y-107315000D02*
X30480000Y-107315000D01*
X82550000Y-104775000D02*
X80010000Y-107315000D01*
X19685000Y-79430000D02*
X19725000Y-79390000D01*
X31750000Y-67945000D02*
X31750000Y-66040000D01*
X30600000Y-64890000D02*
X30480000Y-64890000D01*
X31750000Y-66040000D02*
X30600000Y-64890000D01*
X77470000Y-101600000D02*
X77470000Y-99695000D01*
X76955000Y-64890000D02*
X30480000Y-64890000D01*
X30480000Y-64890000D02*
X24725000Y-64890000D01*
X85090000Y-73025000D02*
X76955000Y-64890000D01*
X85090000Y-92075000D02*
X85090000Y-73025000D01*
X77470000Y-99695000D02*
X85090000Y-92075000D01*
X60706000Y-101600000D02*
X60706000Y-97536000D01*
X55245000Y-92075000D02*
X55245000Y-88900000D01*
X60706000Y-97536000D02*
X55245000Y-92075000D01*
X93345000Y-57150000D02*
X99695000Y-57150000D01*
X100965000Y-55880000D02*
X100965000Y-53340000D01*
X99695000Y-57150000D02*
X100965000Y-55880000D01*
X87630000Y-53340000D02*
X87630000Y-56515000D01*
X88265000Y-57150000D02*
X93345000Y-57150000D01*
X87630000Y-56515000D02*
X88265000Y-57150000D01*
X103505000Y-53340000D02*
X103505000Y-56515000D01*
X100965000Y-59055000D02*
X93980000Y-59055000D01*
X103505000Y-56515000D02*
X100965000Y-59055000D01*
X85090000Y-53340000D02*
X85090000Y-56515000D01*
X87630000Y-59055000D02*
X93980000Y-59055000D01*
X85090000Y-56515000D02*
X87630000Y-59055000D01*
X92075000Y-53340000D02*
X92075000Y-50165000D01*
X92075000Y-50165000D02*
X91440000Y-49530000D01*
X82550000Y-50800000D02*
X82550000Y-53340000D01*
X83820000Y-49530000D02*
X82550000Y-50800000D01*
X91440000Y-49530000D02*
X83820000Y-49530000D01*
D21*
G36*
X93716974Y-48631974D02*
X93441673Y-49043992D01*
X93344999Y-49530000D01*
X93345000Y-49530005D01*
X93345000Y-52406940D01*
X93324568Y-52393148D01*
X93218000Y-52371777D01*
X93218000Y-50165000D01*
X93130994Y-49727593D01*
X92883223Y-49356777D01*
X92248223Y-48721777D01*
X91877407Y-48474006D01*
X91440000Y-48387000D01*
X83820000Y-48387000D01*
X83382593Y-48474006D01*
X83011777Y-48721777D01*
X81741777Y-49991777D01*
X81494006Y-50362593D01*
X81407000Y-50800000D01*
X81407000Y-51812392D01*
X81280000Y-52002461D01*
X81280000Y-50800000D01*
X81183327Y-50313992D01*
X80908026Y-49901974D01*
X80908023Y-49901972D01*
X79638026Y-48631974D01*
X79226008Y-48356673D01*
X78740000Y-48259999D01*
X78739995Y-48260000D01*
X23495005Y-48260000D01*
X23495000Y-48259999D01*
X23008992Y-48356673D01*
X22596974Y-48631974D01*
X22596972Y-48631977D01*
X21961974Y-49266974D01*
X21961972Y-49266977D01*
X20691974Y-50536974D01*
X20416673Y-50948992D01*
X20319999Y-51435000D01*
X20320000Y-51435005D01*
X20320000Y-51773792D01*
X20094087Y-51922192D01*
X20030501Y-52016393D01*
X19705154Y-51799003D01*
X19050000Y-51668685D01*
X18394846Y-51799003D01*
X17866861Y-52151791D01*
X17644199Y-51904720D01*
X17070144Y-51633529D01*
X16783000Y-51802558D01*
X16783000Y-53702000D01*
X16803000Y-53702000D01*
X16803000Y-54248000D01*
X16783000Y-54248000D01*
X16783000Y-56147442D01*
X17070144Y-56316471D01*
X17644199Y-56045280D01*
X17780000Y-55894592D01*
X17780000Y-59861028D01*
X17703174Y-59124043D01*
X17567906Y-58797478D01*
X17241640Y-58709440D01*
X16261080Y-59690000D01*
X17241640Y-60670560D01*
X17567906Y-60582522D01*
X17780000Y-59868738D01*
X17780000Y-60324995D01*
X17779999Y-60325000D01*
X17780000Y-60325005D01*
X17780000Y-64214995D01*
X17779999Y-64215000D01*
X17876673Y-64701008D01*
X18012987Y-64905016D01*
X18012704Y-65229044D01*
X18272791Y-65858503D01*
X18455000Y-66041030D01*
X18455000Y-73064995D01*
X18454999Y-73065000D01*
X18551673Y-73551008D01*
X18826974Y-73963026D01*
X21961972Y-77098023D01*
X21961974Y-77098026D01*
X22373992Y-77373327D01*
X22860000Y-77470001D01*
X22860005Y-77470000D01*
X40748948Y-77470000D01*
X43815000Y-80536051D01*
X43815000Y-87198166D01*
X43727186Y-87088924D01*
X43097236Y-86758459D01*
X42818000Y-86928283D01*
X42818000Y-88627000D01*
X42838000Y-88627000D01*
X42838000Y-89173000D01*
X42818000Y-89173000D01*
X42818000Y-90871717D01*
X43097236Y-91041541D01*
X43727186Y-90711076D01*
X43898225Y-90498301D01*
X43909789Y-90515608D01*
X44448980Y-90875885D01*
X45085000Y-91002397D01*
X45721020Y-90875885D01*
X46260211Y-90515608D01*
X46355000Y-90373747D01*
X46449789Y-90515608D01*
X46482000Y-90537131D01*
X46482000Y-90966554D01*
X46008556Y-91439998D01*
X40478446Y-91439998D01*
X39750225Y-90711777D01*
X39379409Y-90464006D01*
X38942002Y-90377000D01*
X38768066Y-90377000D01*
X38962412Y-90182993D01*
X39261857Y-89461849D01*
X40711287Y-89461849D01*
X40912807Y-90151261D01*
X41362814Y-90711076D01*
X41992764Y-91041541D01*
X42272000Y-90871717D01*
X42272000Y-89173000D01*
X40940294Y-89173000D01*
X40711287Y-89461849D01*
X39261857Y-89461849D01*
X39307506Y-89351914D01*
X39308292Y-88452034D01*
X39261237Y-88338151D01*
X40711287Y-88338151D01*
X40940294Y-88627000D01*
X42272000Y-88627000D01*
X42272000Y-86928283D01*
X41992764Y-86758459D01*
X41362814Y-87088924D01*
X40912807Y-87648739D01*
X40711287Y-88338151D01*
X39261237Y-88338151D01*
X38964648Y-87620354D01*
X38328893Y-86983488D01*
X37497814Y-86638394D01*
X36597934Y-86637608D01*
X35766254Y-86981252D01*
X35129388Y-87617007D01*
X34784294Y-88448086D01*
X34783508Y-89347966D01*
X35127152Y-90179646D01*
X35324162Y-90377000D01*
X34933016Y-90377000D01*
X34626036Y-90069483D01*
X33997032Y-89808298D01*
X33315956Y-89807704D01*
X32686497Y-90067791D01*
X32204483Y-90548964D01*
X31943298Y-91177968D01*
X31942704Y-91859044D01*
X32202791Y-92488503D01*
X32683964Y-92970517D01*
X33312968Y-93231702D01*
X33994044Y-93232296D01*
X34623503Y-92972209D01*
X34933252Y-92663000D01*
X38468556Y-92663000D01*
X39196777Y-93391221D01*
X39567593Y-93638992D01*
X40005000Y-93725998D01*
X46482002Y-93725998D01*
X46919409Y-93638992D01*
X47290225Y-93391221D01*
X48433223Y-92248223D01*
X48680994Y-91877407D01*
X48768000Y-91440000D01*
X48768000Y-90537131D01*
X48800211Y-90515608D01*
X48895000Y-90373747D01*
X48989789Y-90515608D01*
X49022000Y-90537131D01*
X49022000Y-90805000D01*
X49109006Y-91242407D01*
X49356777Y-91613223D01*
X57023000Y-99279446D01*
X57023000Y-100072392D01*
X56896000Y-100262461D01*
X56767978Y-100070862D01*
X56681994Y-99638593D01*
X56434223Y-99267777D01*
X52878223Y-95711777D01*
X52507407Y-95464006D01*
X52070000Y-95377000D01*
X35344482Y-95377000D01*
X35325555Y-95279452D01*
X35157808Y-95024087D01*
X34904568Y-94853148D01*
X34605000Y-94793072D01*
X32705000Y-94793072D01*
X32414452Y-94849445D01*
X32159087Y-95017192D01*
X31988148Y-95270432D01*
X31928072Y-95570000D01*
X31928072Y-97470000D01*
X31984445Y-97760548D01*
X32152192Y-98015913D01*
X32405432Y-98186852D01*
X32705000Y-98246928D01*
X34605000Y-98246928D01*
X34895548Y-98190555D01*
X35150913Y-98022808D01*
X35321852Y-97769568D01*
X35343223Y-97663000D01*
X51596554Y-97663000D01*
X53555044Y-99621490D01*
X53086000Y-99528191D01*
X52502790Y-99644199D01*
X52008369Y-99974560D01*
X51920162Y-100106571D01*
X51739980Y-99848434D01*
X51076382Y-99488437D01*
X50819000Y-99660550D01*
X50819000Y-101327000D01*
X50839000Y-101327000D01*
X50839000Y-101873000D01*
X50819000Y-101873000D01*
X50819000Y-103539450D01*
X51076382Y-103711563D01*
X51739980Y-103351566D01*
X51920162Y-103093429D01*
X52008369Y-103225440D01*
X52502790Y-103555801D01*
X53086000Y-103671809D01*
X53669210Y-103555801D01*
X54163631Y-103225440D01*
X54356000Y-102937539D01*
X54548369Y-103225440D01*
X55042790Y-103555801D01*
X55626000Y-103671809D01*
X56209210Y-103555801D01*
X56703631Y-103225440D01*
X56896000Y-102937539D01*
X57088369Y-103225440D01*
X57582790Y-103555801D01*
X58166000Y-103671809D01*
X58749210Y-103555801D01*
X59243631Y-103225440D01*
X59436000Y-102937539D01*
X59628369Y-103225440D01*
X60122790Y-103555801D01*
X60706000Y-103671809D01*
X61289210Y-103555801D01*
X61783631Y-103225440D01*
X61976000Y-102937539D01*
X62168369Y-103225440D01*
X62662790Y-103555801D01*
X63246000Y-103671809D01*
X63829210Y-103555801D01*
X64323631Y-103225440D01*
X64516000Y-102937539D01*
X64708369Y-103225440D01*
X65202790Y-103555801D01*
X65786000Y-103671809D01*
X66369210Y-103555801D01*
X66863631Y-103225440D01*
X67193992Y-102731019D01*
X67310000Y-102147809D01*
X67310000Y-101052191D01*
X67193992Y-100468981D01*
X66929000Y-100072392D01*
X66929000Y-99787446D01*
X71293223Y-95423223D01*
X71540994Y-95052407D01*
X71628000Y-94615000D01*
X71628000Y-90537131D01*
X71660211Y-90515608D01*
X71755000Y-90373747D01*
X71849789Y-90515608D01*
X71882000Y-90537131D01*
X71882000Y-95411554D01*
X69041777Y-98251777D01*
X68794006Y-98622593D01*
X68707000Y-99060000D01*
X68707000Y-100072392D01*
X68442008Y-100468981D01*
X68326000Y-101052191D01*
X68326000Y-102147809D01*
X68442008Y-102731019D01*
X68772369Y-103225440D01*
X69266790Y-103555801D01*
X69850000Y-103671809D01*
X70433210Y-103555801D01*
X70927631Y-103225440D01*
X71120000Y-102937539D01*
X71312369Y-103225440D01*
X71806790Y-103555801D01*
X72390000Y-103671809D01*
X72973210Y-103555801D01*
X73467631Y-103225440D01*
X73660000Y-102937539D01*
X73852369Y-103225440D01*
X74346790Y-103555801D01*
X74930000Y-103671809D01*
X75513210Y-103555801D01*
X76007631Y-103225440D01*
X76200000Y-102937539D01*
X76392369Y-103225440D01*
X76886790Y-103555801D01*
X77470000Y-103671809D01*
X78053210Y-103555801D01*
X78547631Y-103225440D01*
X78740000Y-102937539D01*
X78867000Y-103127608D01*
X78867000Y-103666554D01*
X78266554Y-104267000D01*
X31588446Y-104267000D01*
X30288086Y-102966640D01*
X42834440Y-102966640D01*
X42922478Y-103292906D01*
X43638264Y-103505595D01*
X44380957Y-103428174D01*
X44707522Y-103292906D01*
X44795560Y-102966640D01*
X43815000Y-101986080D01*
X42834440Y-102966640D01*
X30288086Y-102966640D01*
X28744710Y-101423264D01*
X41909405Y-101423264D01*
X41986826Y-102165957D01*
X42122094Y-102492522D01*
X42448360Y-102580560D01*
X43428920Y-101600000D01*
X44201080Y-101600000D01*
X45181640Y-102580560D01*
X45507906Y-102492522D01*
X45720595Y-101776736D01*
X45645066Y-101052191D01*
X46482000Y-101052191D01*
X46482000Y-102147809D01*
X46598008Y-102731019D01*
X46928369Y-103225440D01*
X47422790Y-103555801D01*
X48006000Y-103671809D01*
X48589210Y-103555801D01*
X49083631Y-103225440D01*
X49171838Y-103093429D01*
X49352020Y-103351566D01*
X50015618Y-103711563D01*
X50273000Y-103539450D01*
X50273000Y-101873000D01*
X50253000Y-101873000D01*
X50253000Y-101327000D01*
X50273000Y-101327000D01*
X50273000Y-99660550D01*
X50015618Y-99488437D01*
X49352020Y-99848434D01*
X49171838Y-100106571D01*
X49083631Y-99974560D01*
X48589210Y-99644199D01*
X48006000Y-99528191D01*
X47422790Y-99644199D01*
X46928369Y-99974560D01*
X46598008Y-100468981D01*
X46482000Y-101052191D01*
X45645066Y-101052191D01*
X45643174Y-101034043D01*
X45507906Y-100707478D01*
X45181640Y-100619440D01*
X44201080Y-101600000D01*
X43428920Y-101600000D01*
X43428920Y-101600000D01*
X42448360Y-100619440D01*
X42122094Y-100707478D01*
X41909405Y-101423264D01*
X28744710Y-101423264D01*
X27554806Y-100233360D01*
X42834440Y-100233360D01*
X43815000Y-101213920D01*
X44795560Y-100233360D01*
X44707522Y-99907094D01*
X43991736Y-99694405D01*
X43249043Y-99771826D01*
X42922478Y-99907094D01*
X42834440Y-100233360D01*
X27554806Y-100233360D01*
X25868000Y-98546554D01*
X25868000Y-85821640D01*
X30769440Y-85821640D01*
X30857478Y-86147906D01*
X31573264Y-86360595D01*
X32315957Y-86283174D01*
X32642522Y-86147906D01*
X32730560Y-85821640D01*
X31750000Y-84841080D01*
X30769440Y-85821640D01*
X25868000Y-85821640D01*
X25868000Y-84278264D01*
X29844405Y-84278264D01*
X29921826Y-85020957D01*
X30057094Y-85347522D01*
X30383360Y-85435560D01*
X31363920Y-84455000D01*
X32136080Y-84455000D01*
X33116640Y-85435560D01*
X33442906Y-85347522D01*
X33655595Y-84631736D01*
X33578174Y-83889043D01*
X33442906Y-83562478D01*
X33116640Y-83474440D01*
X32136080Y-84455000D01*
X31363920Y-84455000D01*
X31363920Y-84455000D01*
X30383360Y-83474440D01*
X30057094Y-83562478D01*
X29844405Y-84278264D01*
X25868000Y-84278264D01*
X25868000Y-83088360D01*
X30769440Y-83088360D01*
X31750000Y-84068920D01*
X32730560Y-83088360D01*
X32642522Y-82762094D01*
X31926736Y-82549405D01*
X31184043Y-82626826D01*
X30857478Y-82762094D01*
X30769440Y-83088360D01*
X25868000Y-83088360D01*
X25868000Y-80668016D01*
X26175517Y-80361036D01*
X26436702Y-79732032D01*
X26437296Y-79050956D01*
X26177209Y-78421497D01*
X25696036Y-77939483D01*
X25067032Y-77678298D01*
X24385956Y-77677704D01*
X23756497Y-77937791D01*
X23274483Y-78418964D01*
X23056036Y-78945044D01*
X22611080Y-79390000D01*
X23056769Y-79835689D01*
X23272791Y-80358503D01*
X23582000Y-80668252D01*
X23582000Y-83484080D01*
X22611080Y-84455000D01*
X23582000Y-85425920D01*
X23582000Y-98800554D01*
X20828000Y-96046554D01*
X20828000Y-85821640D01*
X21244440Y-85821640D01*
X21332478Y-86147906D01*
X22048264Y-86360595D01*
X22790957Y-86283174D01*
X23117522Y-86147906D01*
X23205560Y-85821640D01*
X22225000Y-84841080D01*
X21244440Y-85821640D01*
X20828000Y-85821640D01*
X20828000Y-85427368D01*
X20858360Y-85435560D01*
X21838920Y-84455000D01*
X20858360Y-83474440D01*
X20828000Y-83482632D01*
X20828000Y-83088360D01*
X21244440Y-83088360D01*
X22225000Y-84068920D01*
X23205560Y-83088360D01*
X23117522Y-82762094D01*
X22401736Y-82549405D01*
X21659043Y-82626826D01*
X21332478Y-82762094D01*
X21244440Y-83088360D01*
X20828000Y-83088360D01*
X20828000Y-80756640D01*
X21244440Y-80756640D01*
X21332478Y-81082906D01*
X22048264Y-81295595D01*
X22790957Y-81218174D01*
X23117522Y-81082906D01*
X23205560Y-80756640D01*
X22225000Y-79776080D01*
X21244440Y-80756640D01*
X20828000Y-80756640D01*
X20828000Y-80707947D01*
X21175517Y-80361036D01*
X21393964Y-79834956D01*
X21838920Y-79390000D01*
X21393231Y-78944311D01*
X21177209Y-78421497D01*
X20779767Y-78023360D01*
X21244440Y-78023360D01*
X22225000Y-79003920D01*
X23205560Y-78023360D01*
X23117522Y-77697094D01*
X22401736Y-77484405D01*
X21659043Y-77561826D01*
X21332478Y-77697094D01*
X21244440Y-78023360D01*
X20779767Y-78023360D01*
X20696036Y-77939483D01*
X20067032Y-77678298D01*
X19385956Y-77677704D01*
X18756497Y-77937791D01*
X18274483Y-78418964D01*
X18013298Y-79047968D01*
X18012704Y-79729044D01*
X18272791Y-80358503D01*
X18542000Y-80628183D01*
X18542000Y-96520000D01*
X18629006Y-96957407D01*
X18876777Y-97328223D01*
X29671777Y-108123223D01*
X30042593Y-108370994D01*
X30480000Y-108458000D01*
X42842632Y-108458000D01*
X42834440Y-108488360D01*
X43815000Y-109468920D01*
X44795560Y-108488360D01*
X44787368Y-108458000D01*
X80010000Y-108458000D01*
X80447407Y-108370994D01*
X80818223Y-108123223D01*
X83358223Y-105583223D01*
X83605994Y-105212407D01*
X83693000Y-104775000D01*
X83693000Y-103127608D01*
X83820000Y-102937539D01*
X84012369Y-103225440D01*
X84506790Y-103555801D01*
X85090000Y-103671809D01*
X85673210Y-103555801D01*
X86167631Y-103225440D01*
X86360000Y-102937539D01*
X86552369Y-103225440D01*
X87046790Y-103555801D01*
X87630000Y-103671809D01*
X88213210Y-103555801D01*
X88707631Y-103225440D01*
X89037992Y-102731019D01*
X89154000Y-102147809D01*
X89154000Y-101052191D01*
X89037992Y-100468981D01*
X88707631Y-99974560D01*
X88213210Y-99644199D01*
X87630000Y-99528191D01*
X87046790Y-99644199D01*
X86552369Y-99974560D01*
X86360000Y-100262461D01*
X86167631Y-99974560D01*
X85673210Y-99644199D01*
X85090000Y-99528191D01*
X84506790Y-99644199D01*
X84012369Y-99974560D01*
X83820000Y-100262461D01*
X83627631Y-99974560D01*
X83133210Y-99644199D01*
X82550000Y-99528191D01*
X81966790Y-99644199D01*
X81472369Y-99974560D01*
X81280000Y-100262461D01*
X81087631Y-99974560D01*
X80593210Y-99644199D01*
X80010000Y-99528191D01*
X79426790Y-99644199D01*
X78932369Y-99974560D01*
X78740000Y-100262461D01*
X78651474Y-100129972D01*
X85898223Y-92883223D01*
X86145994Y-92512407D01*
X86233000Y-92075000D01*
X86233000Y-89347966D01*
X109782088Y-89347966D01*
X110125732Y-90179646D01*
X110761487Y-90816512D01*
X111592566Y-91161606D01*
X112492446Y-91162392D01*
X113324126Y-90818748D01*
X113960992Y-90182993D01*
X114306086Y-89351914D01*
X114306872Y-88452034D01*
X113963228Y-87620354D01*
X113327473Y-86983488D01*
X112496394Y-86638394D01*
X111596514Y-86637608D01*
X110764834Y-86981252D01*
X110127968Y-87617007D01*
X109782874Y-88448086D01*
X109782088Y-89347966D01*
X86233000Y-89347966D01*
X86233000Y-73025000D01*
X86145994Y-72587593D01*
X85898223Y-72216777D01*
X77816446Y-64135000D01*
X102869995Y-64135000D01*
X102870000Y-64135001D01*
X103356008Y-64038327D01*
X103768026Y-63763026D01*
X106943026Y-60588026D01*
X107218327Y-60176008D01*
X107315001Y-59690000D01*
X107315000Y-59689995D01*
X107315000Y-56980829D01*
X107450608Y-57037000D01*
X108080250Y-57037000D01*
X108312000Y-56805250D01*
X108312000Y-54883000D01*
X108858000Y-54883000D01*
X108858000Y-56805250D01*
X109089750Y-57037000D01*
X109719392Y-57037000D01*
X110001865Y-56919996D01*
X109782874Y-57447386D01*
X109782088Y-58347266D01*
X110125732Y-59178946D01*
X110761487Y-59815812D01*
X111592566Y-60160906D01*
X112492446Y-60161692D01*
X113324126Y-59818048D01*
X113960992Y-59182293D01*
X114306086Y-58351214D01*
X114306872Y-57451334D01*
X113963228Y-56619654D01*
X113327473Y-55982788D01*
X112496394Y-55637694D01*
X111596514Y-55636908D01*
X110764834Y-55980552D01*
X110462000Y-56282858D01*
X110462000Y-55114750D01*
X110230250Y-54883000D01*
X108858000Y-54883000D01*
X108312000Y-54883000D01*
X108312000Y-54883000D01*
X108292000Y-54883000D01*
X108292000Y-54337000D01*
X108312000Y-54337000D01*
X108312000Y-52414750D01*
X108858000Y-52414750D01*
X108858000Y-54337000D01*
X110230250Y-54337000D01*
X110462000Y-54105250D01*
X110462000Y-52925608D01*
X110320873Y-52584896D01*
X110060103Y-52324127D01*
X109719392Y-52183000D01*
X109089750Y-52183000D01*
X108858000Y-52414750D01*
X108312000Y-52414750D01*
X108312000Y-52414750D01*
X108080250Y-52183000D01*
X107450608Y-52183000D01*
X107315000Y-52239171D01*
X107315000Y-52166640D01*
X111414440Y-52166640D01*
X111502478Y-52492906D01*
X112218264Y-52705595D01*
X112960957Y-52628174D01*
X113287522Y-52492906D01*
X113375560Y-52166640D01*
X112395000Y-51186080D01*
X111414440Y-52166640D01*
X107315000Y-52166640D01*
X107315000Y-50623264D01*
X110489405Y-50623264D01*
X110566826Y-51365957D01*
X110702094Y-51692522D01*
X111028360Y-51780560D01*
X112008920Y-50800000D01*
X112781080Y-50800000D01*
X113761640Y-51780560D01*
X114087906Y-51692522D01*
X114300595Y-50976736D01*
X114223174Y-50234043D01*
X114087906Y-49907478D01*
X113761640Y-49819440D01*
X112781080Y-50800000D01*
X112008920Y-50800000D01*
X112008920Y-50800000D01*
X111028360Y-49819440D01*
X110702094Y-49907478D01*
X110489405Y-50623264D01*
X107315000Y-50623264D01*
X107315000Y-49433360D01*
X111414440Y-49433360D01*
X112395000Y-50413920D01*
X113375560Y-49433360D01*
X113287522Y-49107094D01*
X112571736Y-48894405D01*
X111829043Y-48971826D01*
X111502478Y-49107094D01*
X111414440Y-49433360D01*
X107315000Y-49433360D01*
X107315000Y-48895000D01*
X107218327Y-48408992D01*
X106943026Y-47996974D01*
X106943023Y-47996972D01*
X106063052Y-47117000D01*
X114808000Y-47117000D01*
X114808000Y-112268000D01*
X14097000Y-112268000D01*
X14097000Y-111221640D01*
X42834440Y-111221640D01*
X42922478Y-111547906D01*
X43638264Y-111760595D01*
X44380957Y-111683174D01*
X44707522Y-111547906D01*
X44795560Y-111221640D01*
X43815000Y-110241080D01*
X42834440Y-111221640D01*
X14097000Y-111221640D01*
X14097000Y-109678264D01*
X41909405Y-109678264D01*
X41986826Y-110420957D01*
X42122094Y-110747522D01*
X42448360Y-110835560D01*
X43428920Y-109855000D01*
X44201080Y-109855000D01*
X45181640Y-110835560D01*
X45507906Y-110747522D01*
X45720595Y-110031736D01*
X45643174Y-109289043D01*
X45507906Y-108962478D01*
X45181640Y-108874440D01*
X44201080Y-109855000D01*
X43428920Y-109855000D01*
X43428920Y-109855000D01*
X42448360Y-108874440D01*
X42122094Y-108962478D01*
X41909405Y-109678264D01*
X14097000Y-109678264D01*
X14097000Y-72992594D01*
X14318315Y-73528217D01*
X14883806Y-74094696D01*
X15623033Y-74401650D01*
X16423456Y-74402348D01*
X17163217Y-74096685D01*
X17729696Y-73531194D01*
X18036650Y-72791967D01*
X18037348Y-71991544D01*
X17731685Y-71251783D01*
X17166194Y-70685304D01*
X16426967Y-70378350D01*
X15626544Y-70377652D01*
X14886783Y-70683315D01*
X14320304Y-71248806D01*
X14097000Y-71786582D01*
X14097000Y-61056640D01*
X14894440Y-61056640D01*
X14982478Y-61382906D01*
X15698264Y-61595595D01*
X16440957Y-61518174D01*
X16767522Y-61382906D01*
X16855560Y-61056640D01*
X15875000Y-60076080D01*
X14894440Y-61056640D01*
X14097000Y-61056640D01*
X14097000Y-60377087D01*
X14182094Y-60582522D01*
X14508360Y-60670560D01*
X15488920Y-59690000D01*
X14508360Y-58709440D01*
X14182094Y-58797478D01*
X14097000Y-59083854D01*
X14097000Y-58323360D01*
X14894440Y-58323360D01*
X15875000Y-59303920D01*
X16855560Y-58323360D01*
X16767522Y-57997094D01*
X16051736Y-57784405D01*
X15309043Y-57861826D01*
X14982478Y-57997094D01*
X14894440Y-58323360D01*
X14097000Y-58323360D01*
X14097000Y-54248000D01*
X14633000Y-54248000D01*
X14633000Y-54798000D01*
X14880351Y-55495516D01*
X15375801Y-56045280D01*
X15949856Y-56316471D01*
X16237000Y-56147442D01*
X16237000Y-54248000D01*
X14633000Y-54248000D01*
X14097000Y-54248000D01*
X14097000Y-53152000D01*
X14633000Y-53152000D01*
X14633000Y-53702000D01*
X16237000Y-53702000D01*
X16237000Y-51802558D01*
X15949856Y-51633529D01*
X15375801Y-51904720D01*
X14880351Y-52454484D01*
X14633000Y-53152000D01*
X14097000Y-53152000D01*
X14097000Y-47117000D01*
X95231949Y-47117000D01*
X93716974Y-48631974D01*
X93716974Y-48631974D01*
G37*
X93716974Y-48631974D02*
X93441673Y-49043992D01*
X93344999Y-49530000D01*
X93345000Y-49530005D01*
X93345000Y-52406940D01*
X93324568Y-52393148D01*
X93218000Y-52371777D01*
X93218000Y-50165000D01*
X93130994Y-49727593D01*
X92883223Y-49356777D01*
X92248223Y-48721777D01*
X91877407Y-48474006D01*
X91440000Y-48387000D01*
X83820000Y-48387000D01*
X83382593Y-48474006D01*
X83011777Y-48721777D01*
X81741777Y-49991777D01*
X81494006Y-50362593D01*
X81407000Y-50800000D01*
X81407000Y-51812392D01*
X81280000Y-52002461D01*
X81280000Y-50800000D01*
X81183327Y-50313992D01*
X80908026Y-49901974D01*
X80908023Y-49901972D01*
X79638026Y-48631974D01*
X79226008Y-48356673D01*
X78740000Y-48259999D01*
X78739995Y-48260000D01*
X23495005Y-48260000D01*
X23495000Y-48259999D01*
X23008992Y-48356673D01*
X22596974Y-48631974D01*
X22596972Y-48631977D01*
X21961974Y-49266974D01*
X21961972Y-49266977D01*
X20691974Y-50536974D01*
X20416673Y-50948992D01*
X20319999Y-51435000D01*
X20320000Y-51435005D01*
X20320000Y-51773792D01*
X20094087Y-51922192D01*
X20030501Y-52016393D01*
X19705154Y-51799003D01*
X19050000Y-51668685D01*
X18394846Y-51799003D01*
X17866861Y-52151791D01*
X17644199Y-51904720D01*
X17070144Y-51633529D01*
X16783000Y-51802558D01*
X16783000Y-53702000D01*
X16803000Y-53702000D01*
X16803000Y-54248000D01*
X16783000Y-54248000D01*
X16783000Y-56147442D01*
X17070144Y-56316471D01*
X17644199Y-56045280D01*
X17780000Y-55894592D01*
X17780000Y-59861028D01*
X17703174Y-59124043D01*
X17567906Y-58797478D01*
X17241640Y-58709440D01*
X16261080Y-59690000D01*
X17241640Y-60670560D01*
X17567906Y-60582522D01*
X17780000Y-59868738D01*
X17780000Y-60324995D01*
X17779999Y-60325000D01*
X17780000Y-60325005D01*
X17780000Y-64214995D01*
X17779999Y-64215000D01*
X17876673Y-64701008D01*
X18012987Y-64905016D01*
X18012704Y-65229044D01*
X18272791Y-65858503D01*
X18455000Y-66041030D01*
X18455000Y-73064995D01*
X18454999Y-73065000D01*
X18551673Y-73551008D01*
X18826974Y-73963026D01*
X21961972Y-77098023D01*
X21961974Y-77098026D01*
X22373992Y-77373327D01*
X22860000Y-77470001D01*
X22860005Y-77470000D01*
X40748948Y-77470000D01*
X43815000Y-80536051D01*
X43815000Y-87198166D01*
X43727186Y-87088924D01*
X43097236Y-86758459D01*
X42818000Y-86928283D01*
X42818000Y-88627000D01*
X42838000Y-88627000D01*
X42838000Y-89173000D01*
X42818000Y-89173000D01*
X42818000Y-90871717D01*
X43097236Y-91041541D01*
X43727186Y-90711076D01*
X43898225Y-90498301D01*
X43909789Y-90515608D01*
X44448980Y-90875885D01*
X45085000Y-91002397D01*
X45721020Y-90875885D01*
X46260211Y-90515608D01*
X46355000Y-90373747D01*
X46449789Y-90515608D01*
X46482000Y-90537131D01*
X46482000Y-90966554D01*
X46008556Y-91439998D01*
X40478446Y-91439998D01*
X39750225Y-90711777D01*
X39379409Y-90464006D01*
X38942002Y-90377000D01*
X38768066Y-90377000D01*
X38962412Y-90182993D01*
X39261857Y-89461849D01*
X40711287Y-89461849D01*
X40912807Y-90151261D01*
X41362814Y-90711076D01*
X41992764Y-91041541D01*
X42272000Y-90871717D01*
X42272000Y-89173000D01*
X40940294Y-89173000D01*
X40711287Y-89461849D01*
X39261857Y-89461849D01*
X39307506Y-89351914D01*
X39308292Y-88452034D01*
X39261237Y-88338151D01*
X40711287Y-88338151D01*
X40940294Y-88627000D01*
X42272000Y-88627000D01*
X42272000Y-86928283D01*
X41992764Y-86758459D01*
X41362814Y-87088924D01*
X40912807Y-87648739D01*
X40711287Y-88338151D01*
X39261237Y-88338151D01*
X38964648Y-87620354D01*
X38328893Y-86983488D01*
X37497814Y-86638394D01*
X36597934Y-86637608D01*
X35766254Y-86981252D01*
X35129388Y-87617007D01*
X34784294Y-88448086D01*
X34783508Y-89347966D01*
X35127152Y-90179646D01*
X35324162Y-90377000D01*
X34933016Y-90377000D01*
X34626036Y-90069483D01*
X33997032Y-89808298D01*
X33315956Y-89807704D01*
X32686497Y-90067791D01*
X32204483Y-90548964D01*
X31943298Y-91177968D01*
X31942704Y-91859044D01*
X32202791Y-92488503D01*
X32683964Y-92970517D01*
X33312968Y-93231702D01*
X33994044Y-93232296D01*
X34623503Y-92972209D01*
X34933252Y-92663000D01*
X38468556Y-92663000D01*
X39196777Y-93391221D01*
X39567593Y-93638992D01*
X40005000Y-93725998D01*
X46482002Y-93725998D01*
X46919409Y-93638992D01*
X47290225Y-93391221D01*
X48433223Y-92248223D01*
X48680994Y-91877407D01*
X48768000Y-91440000D01*
X48768000Y-90537131D01*
X48800211Y-90515608D01*
X48895000Y-90373747D01*
X48989789Y-90515608D01*
X49022000Y-90537131D01*
X49022000Y-90805000D01*
X49109006Y-91242407D01*
X49356777Y-91613223D01*
X57023000Y-99279446D01*
X57023000Y-100072392D01*
X56896000Y-100262461D01*
X56767978Y-100070862D01*
X56681994Y-99638593D01*
X56434223Y-99267777D01*
X52878223Y-95711777D01*
X52507407Y-95464006D01*
X52070000Y-95377000D01*
X35344482Y-95377000D01*
X35325555Y-95279452D01*
X35157808Y-95024087D01*
X34904568Y-94853148D01*
X34605000Y-94793072D01*
X32705000Y-94793072D01*
X32414452Y-94849445D01*
X32159087Y-95017192D01*
X31988148Y-95270432D01*
X31928072Y-95570000D01*
X31928072Y-97470000D01*
X31984445Y-97760548D01*
X32152192Y-98015913D01*
X32405432Y-98186852D01*
X32705000Y-98246928D01*
X34605000Y-98246928D01*
X34895548Y-98190555D01*
X35150913Y-98022808D01*
X35321852Y-97769568D01*
X35343223Y-97663000D01*
X51596554Y-97663000D01*
X53555044Y-99621490D01*
X53086000Y-99528191D01*
X52502790Y-99644199D01*
X52008369Y-99974560D01*
X51920162Y-100106571D01*
X51739980Y-99848434D01*
X51076382Y-99488437D01*
X50819000Y-99660550D01*
X50819000Y-101327000D01*
X50839000Y-101327000D01*
X50839000Y-101873000D01*
X50819000Y-101873000D01*
X50819000Y-103539450D01*
X51076382Y-103711563D01*
X51739980Y-103351566D01*
X51920162Y-103093429D01*
X52008369Y-103225440D01*
X52502790Y-103555801D01*
X53086000Y-103671809D01*
X53669210Y-103555801D01*
X54163631Y-103225440D01*
X54356000Y-102937539D01*
X54548369Y-103225440D01*
X55042790Y-103555801D01*
X55626000Y-103671809D01*
X56209210Y-103555801D01*
X56703631Y-103225440D01*
X56896000Y-102937539D01*
X57088369Y-103225440D01*
X57582790Y-103555801D01*
X58166000Y-103671809D01*
X58749210Y-103555801D01*
X59243631Y-103225440D01*
X59436000Y-102937539D01*
X59628369Y-103225440D01*
X60122790Y-103555801D01*
X60706000Y-103671809D01*
X61289210Y-103555801D01*
X61783631Y-103225440D01*
X61976000Y-102937539D01*
X62168369Y-103225440D01*
X62662790Y-103555801D01*
X63246000Y-103671809D01*
X63829210Y-103555801D01*
X64323631Y-103225440D01*
X64516000Y-102937539D01*
X64708369Y-103225440D01*
X65202790Y-103555801D01*
X65786000Y-103671809D01*
X66369210Y-103555801D01*
X66863631Y-103225440D01*
X67193992Y-102731019D01*
X67310000Y-102147809D01*
X67310000Y-101052191D01*
X67193992Y-100468981D01*
X66929000Y-100072392D01*
X66929000Y-99787446D01*
X71293223Y-95423223D01*
X71540994Y-95052407D01*
X71628000Y-94615000D01*
X71628000Y-90537131D01*
X71660211Y-90515608D01*
X71755000Y-90373747D01*
X71849789Y-90515608D01*
X71882000Y-90537131D01*
X71882000Y-95411554D01*
X69041777Y-98251777D01*
X68794006Y-98622593D01*
X68707000Y-99060000D01*
X68707000Y-100072392D01*
X68442008Y-100468981D01*
X68326000Y-101052191D01*
X68326000Y-102147809D01*
X68442008Y-102731019D01*
X68772369Y-103225440D01*
X69266790Y-103555801D01*
X69850000Y-103671809D01*
X70433210Y-103555801D01*
X70927631Y-103225440D01*
X71120000Y-102937539D01*
X71312369Y-103225440D01*
X71806790Y-103555801D01*
X72390000Y-103671809D01*
X72973210Y-103555801D01*
X73467631Y-103225440D01*
X73660000Y-102937539D01*
X73852369Y-103225440D01*
X74346790Y-103555801D01*
X74930000Y-103671809D01*
X75513210Y-103555801D01*
X76007631Y-103225440D01*
X76200000Y-102937539D01*
X76392369Y-103225440D01*
X76886790Y-103555801D01*
X77470000Y-103671809D01*
X78053210Y-103555801D01*
X78547631Y-103225440D01*
X78740000Y-102937539D01*
X78867000Y-103127608D01*
X78867000Y-103666554D01*
X78266554Y-104267000D01*
X31588446Y-104267000D01*
X30288086Y-102966640D01*
X42834440Y-102966640D01*
X42922478Y-103292906D01*
X43638264Y-103505595D01*
X44380957Y-103428174D01*
X44707522Y-103292906D01*
X44795560Y-102966640D01*
X43815000Y-101986080D01*
X42834440Y-102966640D01*
X30288086Y-102966640D01*
X28744710Y-101423264D01*
X41909405Y-101423264D01*
X41986826Y-102165957D01*
X42122094Y-102492522D01*
X42448360Y-102580560D01*
X43428920Y-101600000D01*
X44201080Y-101600000D01*
X45181640Y-102580560D01*
X45507906Y-102492522D01*
X45720595Y-101776736D01*
X45645066Y-101052191D01*
X46482000Y-101052191D01*
X46482000Y-102147809D01*
X46598008Y-102731019D01*
X46928369Y-103225440D01*
X47422790Y-103555801D01*
X48006000Y-103671809D01*
X48589210Y-103555801D01*
X49083631Y-103225440D01*
X49171838Y-103093429D01*
X49352020Y-103351566D01*
X50015618Y-103711563D01*
X50273000Y-103539450D01*
X50273000Y-101873000D01*
X50253000Y-101873000D01*
X50253000Y-101327000D01*
X50273000Y-101327000D01*
X50273000Y-99660550D01*
X50015618Y-99488437D01*
X49352020Y-99848434D01*
X49171838Y-100106571D01*
X49083631Y-99974560D01*
X48589210Y-99644199D01*
X48006000Y-99528191D01*
X47422790Y-99644199D01*
X46928369Y-99974560D01*
X46598008Y-100468981D01*
X46482000Y-101052191D01*
X45645066Y-101052191D01*
X45643174Y-101034043D01*
X45507906Y-100707478D01*
X45181640Y-100619440D01*
X44201080Y-101600000D01*
X43428920Y-101600000D01*
X43428920Y-101600000D01*
X42448360Y-100619440D01*
X42122094Y-100707478D01*
X41909405Y-101423264D01*
X28744710Y-101423264D01*
X27554806Y-100233360D01*
X42834440Y-100233360D01*
X43815000Y-101213920D01*
X44795560Y-100233360D01*
X44707522Y-99907094D01*
X43991736Y-99694405D01*
X43249043Y-99771826D01*
X42922478Y-99907094D01*
X42834440Y-100233360D01*
X27554806Y-100233360D01*
X25868000Y-98546554D01*
X25868000Y-85821640D01*
X30769440Y-85821640D01*
X30857478Y-86147906D01*
X31573264Y-86360595D01*
X32315957Y-86283174D01*
X32642522Y-86147906D01*
X32730560Y-85821640D01*
X31750000Y-84841080D01*
X30769440Y-85821640D01*
X25868000Y-85821640D01*
X25868000Y-84278264D01*
X29844405Y-84278264D01*
X29921826Y-85020957D01*
X30057094Y-85347522D01*
X30383360Y-85435560D01*
X31363920Y-84455000D01*
X32136080Y-84455000D01*
X33116640Y-85435560D01*
X33442906Y-85347522D01*
X33655595Y-84631736D01*
X33578174Y-83889043D01*
X33442906Y-83562478D01*
X33116640Y-83474440D01*
X32136080Y-84455000D01*
X31363920Y-84455000D01*
X31363920Y-84455000D01*
X30383360Y-83474440D01*
X30057094Y-83562478D01*
X29844405Y-84278264D01*
X25868000Y-84278264D01*
X25868000Y-83088360D01*
X30769440Y-83088360D01*
X31750000Y-84068920D01*
X32730560Y-83088360D01*
X32642522Y-82762094D01*
X31926736Y-82549405D01*
X31184043Y-82626826D01*
X30857478Y-82762094D01*
X30769440Y-83088360D01*
X25868000Y-83088360D01*
X25868000Y-80668016D01*
X26175517Y-80361036D01*
X26436702Y-79732032D01*
X26437296Y-79050956D01*
X26177209Y-78421497D01*
X25696036Y-77939483D01*
X25067032Y-77678298D01*
X24385956Y-77677704D01*
X23756497Y-77937791D01*
X23274483Y-78418964D01*
X23056036Y-78945044D01*
X22611080Y-79390000D01*
X23056769Y-79835689D01*
X23272791Y-80358503D01*
X23582000Y-80668252D01*
X23582000Y-83484080D01*
X22611080Y-84455000D01*
X23582000Y-85425920D01*
X23582000Y-98800554D01*
X20828000Y-96046554D01*
X20828000Y-85821640D01*
X21244440Y-85821640D01*
X21332478Y-86147906D01*
X22048264Y-86360595D01*
X22790957Y-86283174D01*
X23117522Y-86147906D01*
X23205560Y-85821640D01*
X22225000Y-84841080D01*
X21244440Y-85821640D01*
X20828000Y-85821640D01*
X20828000Y-85427368D01*
X20858360Y-85435560D01*
X21838920Y-84455000D01*
X20858360Y-83474440D01*
X20828000Y-83482632D01*
X20828000Y-83088360D01*
X21244440Y-83088360D01*
X22225000Y-84068920D01*
X23205560Y-83088360D01*
X23117522Y-82762094D01*
X22401736Y-82549405D01*
X21659043Y-82626826D01*
X21332478Y-82762094D01*
X21244440Y-83088360D01*
X20828000Y-83088360D01*
X20828000Y-80756640D01*
X21244440Y-80756640D01*
X21332478Y-81082906D01*
X22048264Y-81295595D01*
X22790957Y-81218174D01*
X23117522Y-81082906D01*
X23205560Y-80756640D01*
X22225000Y-79776080D01*
X21244440Y-80756640D01*
X20828000Y-80756640D01*
X20828000Y-80707947D01*
X21175517Y-80361036D01*
X21393964Y-79834956D01*
X21838920Y-79390000D01*
X21393231Y-78944311D01*
X21177209Y-78421497D01*
X20779767Y-78023360D01*
X21244440Y-78023360D01*
X22225000Y-79003920D01*
X23205560Y-78023360D01*
X23117522Y-77697094D01*
X22401736Y-77484405D01*
X21659043Y-77561826D01*
X21332478Y-77697094D01*
X21244440Y-78023360D01*
X20779767Y-78023360D01*
X20696036Y-77939483D01*
X20067032Y-77678298D01*
X19385956Y-77677704D01*
X18756497Y-77937791D01*
X18274483Y-78418964D01*
X18013298Y-79047968D01*
X18012704Y-79729044D01*
X18272791Y-80358503D01*
X18542000Y-80628183D01*
X18542000Y-96520000D01*
X18629006Y-96957407D01*
X18876777Y-97328223D01*
X29671777Y-108123223D01*
X30042593Y-108370994D01*
X30480000Y-108458000D01*
X42842632Y-108458000D01*
X42834440Y-108488360D01*
X43815000Y-109468920D01*
X44795560Y-108488360D01*
X44787368Y-108458000D01*
X80010000Y-108458000D01*
X80447407Y-108370994D01*
X80818223Y-108123223D01*
X83358223Y-105583223D01*
X83605994Y-105212407D01*
X83693000Y-104775000D01*
X83693000Y-103127608D01*
X83820000Y-102937539D01*
X84012369Y-103225440D01*
X84506790Y-103555801D01*
X85090000Y-103671809D01*
X85673210Y-103555801D01*
X86167631Y-103225440D01*
X86360000Y-102937539D01*
X86552369Y-103225440D01*
X87046790Y-103555801D01*
X87630000Y-103671809D01*
X88213210Y-103555801D01*
X88707631Y-103225440D01*
X89037992Y-102731019D01*
X89154000Y-102147809D01*
X89154000Y-101052191D01*
X89037992Y-100468981D01*
X88707631Y-99974560D01*
X88213210Y-99644199D01*
X87630000Y-99528191D01*
X87046790Y-99644199D01*
X86552369Y-99974560D01*
X86360000Y-100262461D01*
X86167631Y-99974560D01*
X85673210Y-99644199D01*
X85090000Y-99528191D01*
X84506790Y-99644199D01*
X84012369Y-99974560D01*
X83820000Y-100262461D01*
X83627631Y-99974560D01*
X83133210Y-99644199D01*
X82550000Y-99528191D01*
X81966790Y-99644199D01*
X81472369Y-99974560D01*
X81280000Y-100262461D01*
X81087631Y-99974560D01*
X80593210Y-99644199D01*
X80010000Y-99528191D01*
X79426790Y-99644199D01*
X78932369Y-99974560D01*
X78740000Y-100262461D01*
X78651474Y-100129972D01*
X85898223Y-92883223D01*
X86145994Y-92512407D01*
X86233000Y-92075000D01*
X86233000Y-89347966D01*
X109782088Y-89347966D01*
X110125732Y-90179646D01*
X110761487Y-90816512D01*
X111592566Y-91161606D01*
X112492446Y-91162392D01*
X113324126Y-90818748D01*
X113960992Y-90182993D01*
X114306086Y-89351914D01*
X114306872Y-88452034D01*
X113963228Y-87620354D01*
X113327473Y-86983488D01*
X112496394Y-86638394D01*
X111596514Y-86637608D01*
X110764834Y-86981252D01*
X110127968Y-87617007D01*
X109782874Y-88448086D01*
X109782088Y-89347966D01*
X86233000Y-89347966D01*
X86233000Y-73025000D01*
X86145994Y-72587593D01*
X85898223Y-72216777D01*
X77816446Y-64135000D01*
X102869995Y-64135000D01*
X102870000Y-64135001D01*
X103356008Y-64038327D01*
X103768026Y-63763026D01*
X106943026Y-60588026D01*
X107218327Y-60176008D01*
X107315001Y-59690000D01*
X107315000Y-59689995D01*
X107315000Y-56980829D01*
X107450608Y-57037000D01*
X108080250Y-57037000D01*
X108312000Y-56805250D01*
X108312000Y-54883000D01*
X108858000Y-54883000D01*
X108858000Y-56805250D01*
X109089750Y-57037000D01*
X109719392Y-57037000D01*
X110001865Y-56919996D01*
X109782874Y-57447386D01*
X109782088Y-58347266D01*
X110125732Y-59178946D01*
X110761487Y-59815812D01*
X111592566Y-60160906D01*
X112492446Y-60161692D01*
X113324126Y-59818048D01*
X113960992Y-59182293D01*
X114306086Y-58351214D01*
X114306872Y-57451334D01*
X113963228Y-56619654D01*
X113327473Y-55982788D01*
X112496394Y-55637694D01*
X111596514Y-55636908D01*
X110764834Y-55980552D01*
X110462000Y-56282858D01*
X110462000Y-55114750D01*
X110230250Y-54883000D01*
X108858000Y-54883000D01*
X108312000Y-54883000D01*
X108312000Y-54883000D01*
X108292000Y-54883000D01*
X108292000Y-54337000D01*
X108312000Y-54337000D01*
X108312000Y-52414750D01*
X108858000Y-52414750D01*
X108858000Y-54337000D01*
X110230250Y-54337000D01*
X110462000Y-54105250D01*
X110462000Y-52925608D01*
X110320873Y-52584896D01*
X110060103Y-52324127D01*
X109719392Y-52183000D01*
X109089750Y-52183000D01*
X108858000Y-52414750D01*
X108312000Y-52414750D01*
X108312000Y-52414750D01*
X108080250Y-52183000D01*
X107450608Y-52183000D01*
X107315000Y-52239171D01*
X107315000Y-52166640D01*
X111414440Y-52166640D01*
X111502478Y-52492906D01*
X112218264Y-52705595D01*
X112960957Y-52628174D01*
X113287522Y-52492906D01*
X113375560Y-52166640D01*
X112395000Y-51186080D01*
X111414440Y-52166640D01*
X107315000Y-52166640D01*
X107315000Y-50623264D01*
X110489405Y-50623264D01*
X110566826Y-51365957D01*
X110702094Y-51692522D01*
X111028360Y-51780560D01*
X112008920Y-50800000D01*
X112781080Y-50800000D01*
X113761640Y-51780560D01*
X114087906Y-51692522D01*
X114300595Y-50976736D01*
X114223174Y-50234043D01*
X114087906Y-49907478D01*
X113761640Y-49819440D01*
X112781080Y-50800000D01*
X112008920Y-50800000D01*
X112008920Y-50800000D01*
X111028360Y-49819440D01*
X110702094Y-49907478D01*
X110489405Y-50623264D01*
X107315000Y-50623264D01*
X107315000Y-49433360D01*
X111414440Y-49433360D01*
X112395000Y-50413920D01*
X113375560Y-49433360D01*
X113287522Y-49107094D01*
X112571736Y-48894405D01*
X111829043Y-48971826D01*
X111502478Y-49107094D01*
X111414440Y-49433360D01*
X107315000Y-49433360D01*
X107315000Y-48895000D01*
X107218327Y-48408992D01*
X106943026Y-47996974D01*
X106943023Y-47996972D01*
X106063052Y-47117000D01*
X114808000Y-47117000D01*
X114808000Y-112268000D01*
X14097000Y-112268000D01*
X14097000Y-111221640D01*
X42834440Y-111221640D01*
X42922478Y-111547906D01*
X43638264Y-111760595D01*
X44380957Y-111683174D01*
X44707522Y-111547906D01*
X44795560Y-111221640D01*
X43815000Y-110241080D01*
X42834440Y-111221640D01*
X14097000Y-111221640D01*
X14097000Y-109678264D01*
X41909405Y-109678264D01*
X41986826Y-110420957D01*
X42122094Y-110747522D01*
X42448360Y-110835560D01*
X43428920Y-109855000D01*
X44201080Y-109855000D01*
X45181640Y-110835560D01*
X45507906Y-110747522D01*
X45720595Y-110031736D01*
X45643174Y-109289043D01*
X45507906Y-108962478D01*
X45181640Y-108874440D01*
X44201080Y-109855000D01*
X43428920Y-109855000D01*
X43428920Y-109855000D01*
X42448360Y-108874440D01*
X42122094Y-108962478D01*
X41909405Y-109678264D01*
X14097000Y-109678264D01*
X14097000Y-72992594D01*
X14318315Y-73528217D01*
X14883806Y-74094696D01*
X15623033Y-74401650D01*
X16423456Y-74402348D01*
X17163217Y-74096685D01*
X17729696Y-73531194D01*
X18036650Y-72791967D01*
X18037348Y-71991544D01*
X17731685Y-71251783D01*
X17166194Y-70685304D01*
X16426967Y-70378350D01*
X15626544Y-70377652D01*
X14886783Y-70683315D01*
X14320304Y-71248806D01*
X14097000Y-71786582D01*
X14097000Y-61056640D01*
X14894440Y-61056640D01*
X14982478Y-61382906D01*
X15698264Y-61595595D01*
X16440957Y-61518174D01*
X16767522Y-61382906D01*
X16855560Y-61056640D01*
X15875000Y-60076080D01*
X14894440Y-61056640D01*
X14097000Y-61056640D01*
X14097000Y-60377087D01*
X14182094Y-60582522D01*
X14508360Y-60670560D01*
X15488920Y-59690000D01*
X14508360Y-58709440D01*
X14182094Y-58797478D01*
X14097000Y-59083854D01*
X14097000Y-58323360D01*
X14894440Y-58323360D01*
X15875000Y-59303920D01*
X16855560Y-58323360D01*
X16767522Y-57997094D01*
X16051736Y-57784405D01*
X15309043Y-57861826D01*
X14982478Y-57997094D01*
X14894440Y-58323360D01*
X14097000Y-58323360D01*
X14097000Y-54248000D01*
X14633000Y-54248000D01*
X14633000Y-54798000D01*
X14880351Y-55495516D01*
X15375801Y-56045280D01*
X15949856Y-56316471D01*
X16237000Y-56147442D01*
X16237000Y-54248000D01*
X14633000Y-54248000D01*
X14097000Y-54248000D01*
X14097000Y-53152000D01*
X14633000Y-53152000D01*
X14633000Y-53702000D01*
X16237000Y-53702000D01*
X16237000Y-51802558D01*
X15949856Y-51633529D01*
X15375801Y-51904720D01*
X14880351Y-52454484D01*
X14633000Y-53152000D01*
X14097000Y-53152000D01*
X14097000Y-47117000D01*
X95231949Y-47117000D01*
X93716974Y-48631974D01*
G36*
X21590000Y-64135000D02*
X23184777Y-64135000D01*
X23013298Y-64547968D01*
X23012704Y-65229044D01*
X23272791Y-65858503D01*
X23753964Y-66340517D01*
X24382968Y-66601702D01*
X25064044Y-66602296D01*
X25693503Y-66342209D01*
X26003252Y-66033000D01*
X30126554Y-66033000D01*
X30607000Y-66513446D01*
X30607000Y-66666984D01*
X30299483Y-66973964D01*
X30038298Y-67602968D01*
X30037704Y-68284044D01*
X30297791Y-68913503D01*
X30778964Y-69395517D01*
X31407968Y-69656702D01*
X32089044Y-69657296D01*
X32718503Y-69397209D01*
X33200517Y-68916036D01*
X33461702Y-68287032D01*
X33462296Y-67605956D01*
X33202209Y-66976497D01*
X32893000Y-66666748D01*
X32893000Y-66040000D01*
X32891608Y-66033000D01*
X76481554Y-66033000D01*
X83947000Y-73498446D01*
X83947000Y-91601554D01*
X79248000Y-96300554D01*
X79248000Y-90537131D01*
X79280211Y-90515608D01*
X79291775Y-90498301D01*
X79462814Y-90711076D01*
X80092764Y-91041541D01*
X80372000Y-90871717D01*
X80372000Y-89173000D01*
X80918000Y-89173000D01*
X80918000Y-90871717D01*
X81197236Y-91041541D01*
X81827186Y-90711076D01*
X82277193Y-90151261D01*
X82478713Y-89461849D01*
X82249706Y-89173000D01*
X80918000Y-89173000D01*
X80372000Y-89173000D01*
X80372000Y-89173000D01*
X80352000Y-89173000D01*
X80352000Y-88627000D01*
X80372000Y-88627000D01*
X80372000Y-86928283D01*
X80918000Y-86928283D01*
X80918000Y-88627000D01*
X82249706Y-88627000D01*
X82478713Y-88338151D01*
X82277193Y-87648739D01*
X81827186Y-87088924D01*
X81197236Y-86758459D01*
X80918000Y-86928283D01*
X80372000Y-86928283D01*
X80372000Y-86928283D01*
X80092764Y-86758459D01*
X79462814Y-87088924D01*
X79291775Y-87301699D01*
X79280211Y-87284392D01*
X78741020Y-86924115D01*
X78105000Y-86797603D01*
X77468980Y-86924115D01*
X76929789Y-87284392D01*
X76835000Y-87426253D01*
X76740211Y-87284392D01*
X76201020Y-86924115D01*
X75565000Y-86797603D01*
X74928980Y-86924115D01*
X74389789Y-87284392D01*
X74295000Y-87426253D01*
X74200211Y-87284392D01*
X73661020Y-86924115D01*
X73025000Y-86797603D01*
X72388980Y-86924115D01*
X71849789Y-87284392D01*
X71755000Y-87426253D01*
X71660211Y-87284392D01*
X71121020Y-86924115D01*
X70485000Y-86797603D01*
X69848980Y-86924115D01*
X69309789Y-87284392D01*
X69215000Y-87426253D01*
X69120211Y-87284392D01*
X68581020Y-86924115D01*
X67945000Y-86797603D01*
X67308980Y-86924115D01*
X66769789Y-87284392D01*
X66675000Y-87426253D01*
X66580211Y-87284392D01*
X66041020Y-86924115D01*
X65405000Y-86797603D01*
X64768980Y-86924115D01*
X64229789Y-87284392D01*
X64135000Y-87426253D01*
X64040211Y-87284392D01*
X63501020Y-86924115D01*
X62865000Y-86797603D01*
X62228980Y-86924115D01*
X61689789Y-87284392D01*
X61595000Y-87426253D01*
X61500211Y-87284392D01*
X60961020Y-86924115D01*
X60325000Y-86797603D01*
X59688980Y-86924115D01*
X59149789Y-87284392D01*
X59055000Y-87426253D01*
X58960211Y-87284392D01*
X58421020Y-86924115D01*
X57785000Y-86797603D01*
X57148980Y-86924115D01*
X56609789Y-87284392D01*
X56515000Y-87426253D01*
X56420211Y-87284392D01*
X55881020Y-86924115D01*
X55245000Y-86797603D01*
X54608980Y-86924115D01*
X54069789Y-87284392D01*
X54058225Y-87301699D01*
X53887186Y-87088924D01*
X53257236Y-86758459D01*
X52978000Y-86928283D01*
X52978000Y-88627000D01*
X52998000Y-88627000D01*
X52998000Y-89173000D01*
X52978000Y-89173000D01*
X52978000Y-90871717D01*
X53257236Y-91041541D01*
X53887186Y-90711076D01*
X54058225Y-90498301D01*
X54069789Y-90515608D01*
X54102000Y-90537131D01*
X54102000Y-92075000D01*
X54189006Y-92512407D01*
X54436777Y-92883223D01*
X59563000Y-98009446D01*
X59563000Y-100072392D01*
X59436000Y-100262461D01*
X59309000Y-100072392D01*
X59309000Y-98806000D01*
X59221994Y-98368593D01*
X58974223Y-97997777D01*
X51869268Y-90892822D01*
X52152764Y-91041541D01*
X52432000Y-90871717D01*
X52432000Y-89173000D01*
X52412000Y-89173000D01*
X52412000Y-88627000D01*
X52432000Y-88627000D01*
X52432000Y-86928283D01*
X52152764Y-86758459D01*
X51522814Y-87088924D01*
X51351775Y-87301699D01*
X51340211Y-87284392D01*
X50801020Y-86924115D01*
X50165000Y-86797603D01*
X49528980Y-86924115D01*
X48989789Y-87284392D01*
X48895000Y-87426253D01*
X48800211Y-87284392D01*
X48261020Y-86924115D01*
X47625000Y-86797603D01*
X46988980Y-86924115D01*
X46449789Y-87284392D01*
X46355000Y-87426253D01*
X46355000Y-80010005D01*
X46355001Y-80010000D01*
X46258327Y-79523992D01*
X46195524Y-79430000D01*
X45983026Y-79111974D01*
X45983023Y-79111972D01*
X42173026Y-75301974D01*
X41761008Y-75026673D01*
X41275000Y-74929999D01*
X41274995Y-74930000D01*
X23386051Y-74930000D01*
X21244508Y-72788456D01*
X26812652Y-72788456D01*
X27118315Y-73528217D01*
X27683806Y-74094696D01*
X28423033Y-74401650D01*
X29223456Y-74402348D01*
X29963217Y-74096685D01*
X30529696Y-73531194D01*
X30699757Y-73121640D01*
X66329440Y-73121640D01*
X66417478Y-73447906D01*
X67133264Y-73660595D01*
X67875957Y-73583174D01*
X68202522Y-73447906D01*
X68290560Y-73121640D01*
X67310000Y-72141080D01*
X66329440Y-73121640D01*
X30699757Y-73121640D01*
X30836650Y-72791967D01*
X30837348Y-71991544D01*
X30666585Y-71578264D01*
X65404405Y-71578264D01*
X65481826Y-72320957D01*
X65617094Y-72647522D01*
X65943360Y-72735560D01*
X66923920Y-71755000D01*
X67696080Y-71755000D01*
X68676640Y-72735560D01*
X69002906Y-72647522D01*
X69215595Y-71931736D01*
X69138174Y-71189043D01*
X69002906Y-70862478D01*
X68676640Y-70774440D01*
X67696080Y-71755000D01*
X66923920Y-71755000D01*
X66923920Y-71755000D01*
X65943360Y-70774440D01*
X65617094Y-70862478D01*
X65404405Y-71578264D01*
X30666585Y-71578264D01*
X30531685Y-71251783D01*
X29966194Y-70685304D01*
X29251074Y-70388360D01*
X66329440Y-70388360D01*
X67310000Y-71368920D01*
X68290560Y-70388360D01*
X68202522Y-70062094D01*
X67486736Y-69849405D01*
X66744043Y-69926826D01*
X66417478Y-70062094D01*
X66329440Y-70388360D01*
X29251074Y-70388360D01*
X29226967Y-70378350D01*
X28426544Y-70377652D01*
X27686783Y-70683315D01*
X27120304Y-71248806D01*
X26813350Y-71988033D01*
X26812652Y-72788456D01*
X21244508Y-72788456D01*
X20995000Y-72538948D01*
X20995000Y-66041238D01*
X21175517Y-65861036D01*
X21436702Y-65232032D01*
X21437296Y-64550956D01*
X21236361Y-64064657D01*
X21590000Y-64135000D01*
X21590000Y-64135000D01*
G37*
X21590000Y-64135000D02*
X23184777Y-64135000D01*
X23013298Y-64547968D01*
X23012704Y-65229044D01*
X23272791Y-65858503D01*
X23753964Y-66340517D01*
X24382968Y-66601702D01*
X25064044Y-66602296D01*
X25693503Y-66342209D01*
X26003252Y-66033000D01*
X30126554Y-66033000D01*
X30607000Y-66513446D01*
X30607000Y-66666984D01*
X30299483Y-66973964D01*
X30038298Y-67602968D01*
X30037704Y-68284044D01*
X30297791Y-68913503D01*
X30778964Y-69395517D01*
X31407968Y-69656702D01*
X32089044Y-69657296D01*
X32718503Y-69397209D01*
X33200517Y-68916036D01*
X33461702Y-68287032D01*
X33462296Y-67605956D01*
X33202209Y-66976497D01*
X32893000Y-66666748D01*
X32893000Y-66040000D01*
X32891608Y-66033000D01*
X76481554Y-66033000D01*
X83947000Y-73498446D01*
X83947000Y-91601554D01*
X79248000Y-96300554D01*
X79248000Y-90537131D01*
X79280211Y-90515608D01*
X79291775Y-90498301D01*
X79462814Y-90711076D01*
X80092764Y-91041541D01*
X80372000Y-90871717D01*
X80372000Y-89173000D01*
X80918000Y-89173000D01*
X80918000Y-90871717D01*
X81197236Y-91041541D01*
X81827186Y-90711076D01*
X82277193Y-90151261D01*
X82478713Y-89461849D01*
X82249706Y-89173000D01*
X80918000Y-89173000D01*
X80372000Y-89173000D01*
X80372000Y-89173000D01*
X80352000Y-89173000D01*
X80352000Y-88627000D01*
X80372000Y-88627000D01*
X80372000Y-86928283D01*
X80918000Y-86928283D01*
X80918000Y-88627000D01*
X82249706Y-88627000D01*
X82478713Y-88338151D01*
X82277193Y-87648739D01*
X81827186Y-87088924D01*
X81197236Y-86758459D01*
X80918000Y-86928283D01*
X80372000Y-86928283D01*
X80372000Y-86928283D01*
X80092764Y-86758459D01*
X79462814Y-87088924D01*
X79291775Y-87301699D01*
X79280211Y-87284392D01*
X78741020Y-86924115D01*
X78105000Y-86797603D01*
X77468980Y-86924115D01*
X76929789Y-87284392D01*
X76835000Y-87426253D01*
X76740211Y-87284392D01*
X76201020Y-86924115D01*
X75565000Y-86797603D01*
X74928980Y-86924115D01*
X74389789Y-87284392D01*
X74295000Y-87426253D01*
X74200211Y-87284392D01*
X73661020Y-86924115D01*
X73025000Y-86797603D01*
X72388980Y-86924115D01*
X71849789Y-87284392D01*
X71755000Y-87426253D01*
X71660211Y-87284392D01*
X71121020Y-86924115D01*
X70485000Y-86797603D01*
X69848980Y-86924115D01*
X69309789Y-87284392D01*
X69215000Y-87426253D01*
X69120211Y-87284392D01*
X68581020Y-86924115D01*
X67945000Y-86797603D01*
X67308980Y-86924115D01*
X66769789Y-87284392D01*
X66675000Y-87426253D01*
X66580211Y-87284392D01*
X66041020Y-86924115D01*
X65405000Y-86797603D01*
X64768980Y-86924115D01*
X64229789Y-87284392D01*
X64135000Y-87426253D01*
X64040211Y-87284392D01*
X63501020Y-86924115D01*
X62865000Y-86797603D01*
X62228980Y-86924115D01*
X61689789Y-87284392D01*
X61595000Y-87426253D01*
X61500211Y-87284392D01*
X60961020Y-86924115D01*
X60325000Y-86797603D01*
X59688980Y-86924115D01*
X59149789Y-87284392D01*
X59055000Y-87426253D01*
X58960211Y-87284392D01*
X58421020Y-86924115D01*
X57785000Y-86797603D01*
X57148980Y-86924115D01*
X56609789Y-87284392D01*
X56515000Y-87426253D01*
X56420211Y-87284392D01*
X55881020Y-86924115D01*
X55245000Y-86797603D01*
X54608980Y-86924115D01*
X54069789Y-87284392D01*
X54058225Y-87301699D01*
X53887186Y-87088924D01*
X53257236Y-86758459D01*
X52978000Y-86928283D01*
X52978000Y-88627000D01*
X52998000Y-88627000D01*
X52998000Y-89173000D01*
X52978000Y-89173000D01*
X52978000Y-90871717D01*
X53257236Y-91041541D01*
X53887186Y-90711076D01*
X54058225Y-90498301D01*
X54069789Y-90515608D01*
X54102000Y-90537131D01*
X54102000Y-92075000D01*
X54189006Y-92512407D01*
X54436777Y-92883223D01*
X59563000Y-98009446D01*
X59563000Y-100072392D01*
X59436000Y-100262461D01*
X59309000Y-100072392D01*
X59309000Y-98806000D01*
X59221994Y-98368593D01*
X58974223Y-97997777D01*
X51869268Y-90892822D01*
X52152764Y-91041541D01*
X52432000Y-90871717D01*
X52432000Y-89173000D01*
X52412000Y-89173000D01*
X52412000Y-88627000D01*
X52432000Y-88627000D01*
X52432000Y-86928283D01*
X52152764Y-86758459D01*
X51522814Y-87088924D01*
X51351775Y-87301699D01*
X51340211Y-87284392D01*
X50801020Y-86924115D01*
X50165000Y-86797603D01*
X49528980Y-86924115D01*
X48989789Y-87284392D01*
X48895000Y-87426253D01*
X48800211Y-87284392D01*
X48261020Y-86924115D01*
X47625000Y-86797603D01*
X46988980Y-86924115D01*
X46449789Y-87284392D01*
X46355000Y-87426253D01*
X46355000Y-80010005D01*
X46355001Y-80010000D01*
X46258327Y-79523992D01*
X46195524Y-79430000D01*
X45983026Y-79111974D01*
X45983023Y-79111972D01*
X42173026Y-75301974D01*
X41761008Y-75026673D01*
X41275000Y-74929999D01*
X41274995Y-74930000D01*
X23386051Y-74930000D01*
X21244508Y-72788456D01*
X26812652Y-72788456D01*
X27118315Y-73528217D01*
X27683806Y-74094696D01*
X28423033Y-74401650D01*
X29223456Y-74402348D01*
X29963217Y-74096685D01*
X30529696Y-73531194D01*
X30699757Y-73121640D01*
X66329440Y-73121640D01*
X66417478Y-73447906D01*
X67133264Y-73660595D01*
X67875957Y-73583174D01*
X68202522Y-73447906D01*
X68290560Y-73121640D01*
X67310000Y-72141080D01*
X66329440Y-73121640D01*
X30699757Y-73121640D01*
X30836650Y-72791967D01*
X30837348Y-71991544D01*
X30666585Y-71578264D01*
X65404405Y-71578264D01*
X65481826Y-72320957D01*
X65617094Y-72647522D01*
X65943360Y-72735560D01*
X66923920Y-71755000D01*
X67696080Y-71755000D01*
X68676640Y-72735560D01*
X69002906Y-72647522D01*
X69215595Y-71931736D01*
X69138174Y-71189043D01*
X69002906Y-70862478D01*
X68676640Y-70774440D01*
X67696080Y-71755000D01*
X66923920Y-71755000D01*
X66923920Y-71755000D01*
X65943360Y-70774440D01*
X65617094Y-70862478D01*
X65404405Y-71578264D01*
X30666585Y-71578264D01*
X30531685Y-71251783D01*
X29966194Y-70685304D01*
X29251074Y-70388360D01*
X66329440Y-70388360D01*
X67310000Y-71368920D01*
X68290560Y-70388360D01*
X68202522Y-70062094D01*
X67486736Y-69849405D01*
X66744043Y-69926826D01*
X66417478Y-70062094D01*
X66329440Y-70388360D01*
X29251074Y-70388360D01*
X29226967Y-70378350D01*
X28426544Y-70377652D01*
X27686783Y-70683315D01*
X27120304Y-71248806D01*
X26813350Y-71988033D01*
X26812652Y-72788456D01*
X21244508Y-72788456D01*
X20995000Y-72538948D01*
X20995000Y-66041238D01*
X21175517Y-65861036D01*
X21436702Y-65232032D01*
X21437296Y-64550956D01*
X21236361Y-64064657D01*
X21590000Y-64135000D01*
G36*
X78740000Y-51326051D02*
X78740000Y-52002461D01*
X78547631Y-51714560D01*
X78053210Y-51384199D01*
X77470000Y-51268191D01*
X76886790Y-51384199D01*
X76392369Y-51714560D01*
X76200000Y-52002461D01*
X76007631Y-51714560D01*
X75513210Y-51384199D01*
X74930000Y-51268191D01*
X74346790Y-51384199D01*
X73852369Y-51714560D01*
X73522008Y-52208981D01*
X73406000Y-52792191D01*
X73406000Y-53887809D01*
X73522008Y-54471019D01*
X73852369Y-54965440D01*
X74346790Y-55295801D01*
X74930000Y-55411809D01*
X75513210Y-55295801D01*
X76007631Y-54965440D01*
X76200000Y-54677539D01*
X76392369Y-54965440D01*
X76886790Y-55295801D01*
X77470000Y-55411809D01*
X78053210Y-55295801D01*
X78547631Y-54965440D01*
X78740000Y-54677539D01*
X78932369Y-54965440D01*
X79426790Y-55295801D01*
X80010000Y-55411809D01*
X80593210Y-55295801D01*
X81087631Y-54965440D01*
X81280000Y-54677539D01*
X81472369Y-54965440D01*
X81966790Y-55295801D01*
X82550000Y-55411809D01*
X83133210Y-55295801D01*
X83627631Y-54965440D01*
X83820000Y-54677539D01*
X83947000Y-54867608D01*
X83947000Y-56515000D01*
X84034006Y-56952407D01*
X84281777Y-57323223D01*
X86821777Y-59863223D01*
X87192593Y-60110994D01*
X87630000Y-60198000D01*
X100965000Y-60198000D01*
X101402407Y-60110994D01*
X101773223Y-59863223D01*
X104313223Y-57323223D01*
X104560994Y-56952407D01*
X104648000Y-56515000D01*
X104648000Y-56460029D01*
X104715567Y-56414882D01*
X104775000Y-56325934D01*
X104775000Y-59163948D01*
X102343948Y-61595000D01*
X65931052Y-61595000D01*
X64122692Y-59786640D01*
X66329440Y-59786640D01*
X66417478Y-60112906D01*
X67133264Y-60325595D01*
X67875957Y-60248174D01*
X68202522Y-60112906D01*
X68290560Y-59786640D01*
X67310000Y-58806080D01*
X66329440Y-59786640D01*
X64122692Y-59786640D01*
X63500000Y-59163948D01*
X63500000Y-58243264D01*
X65404405Y-58243264D01*
X65481826Y-58985957D01*
X65617094Y-59312522D01*
X65943360Y-59400560D01*
X66923920Y-58420000D01*
X67696080Y-58420000D01*
X68676640Y-59400560D01*
X69002906Y-59312522D01*
X69215595Y-58596736D01*
X69138174Y-57854043D01*
X69002906Y-57527478D01*
X68676640Y-57439440D01*
X67696080Y-58420000D01*
X66923920Y-58420000D01*
X66923920Y-58420000D01*
X65943360Y-57439440D01*
X65617094Y-57527478D01*
X65404405Y-58243264D01*
X63500000Y-58243264D01*
X63500000Y-57053360D01*
X66329440Y-57053360D01*
X67310000Y-58033920D01*
X68290560Y-57053360D01*
X68202522Y-56727094D01*
X67486736Y-56514405D01*
X66744043Y-56591826D01*
X66417478Y-56727094D01*
X66329440Y-57053360D01*
X63500000Y-57053360D01*
X63500000Y-54982656D01*
X63576020Y-55091566D01*
X64239618Y-55451563D01*
X64497000Y-55279450D01*
X64497000Y-53613000D01*
X65043000Y-53613000D01*
X65043000Y-55279450D01*
X65300382Y-55451563D01*
X65963980Y-55091566D01*
X66040000Y-54982656D01*
X66116020Y-55091566D01*
X66779618Y-55451563D01*
X67037000Y-55279450D01*
X67037000Y-53613000D01*
X65043000Y-53613000D01*
X64497000Y-53613000D01*
X64497000Y-53613000D01*
X64477000Y-53613000D01*
X64477000Y-53067000D01*
X64497000Y-53067000D01*
X64497000Y-51400550D01*
X65043000Y-51400550D01*
X65043000Y-53067000D01*
X67037000Y-53067000D01*
X67037000Y-51400550D01*
X67583000Y-51400550D01*
X67583000Y-53067000D01*
X67603000Y-53067000D01*
X67603000Y-53613000D01*
X67583000Y-53613000D01*
X67583000Y-55279450D01*
X67840382Y-55451563D01*
X68503980Y-55091566D01*
X68684162Y-54833429D01*
X68772369Y-54965440D01*
X69266790Y-55295801D01*
X69850000Y-55411809D01*
X70433210Y-55295801D01*
X70927631Y-54965440D01*
X71257992Y-54471019D01*
X71374000Y-53887809D01*
X71374000Y-52792191D01*
X71257992Y-52208981D01*
X70927631Y-51714560D01*
X70433210Y-51384199D01*
X69850000Y-51268191D01*
X69266790Y-51384199D01*
X68772369Y-51714560D01*
X68684162Y-51846571D01*
X68503980Y-51588434D01*
X67840382Y-51228437D01*
X67583000Y-51400550D01*
X67037000Y-51400550D01*
X67037000Y-51400550D01*
X66779618Y-51228437D01*
X66116020Y-51588434D01*
X66040000Y-51697344D01*
X65963980Y-51588434D01*
X65300382Y-51228437D01*
X65043000Y-51400550D01*
X64497000Y-51400550D01*
X64497000Y-51400550D01*
X64239618Y-51228437D01*
X63576020Y-51588434D01*
X63395838Y-51846571D01*
X63307631Y-51714560D01*
X62813210Y-51384199D01*
X62230000Y-51268191D01*
X61646790Y-51384199D01*
X61152369Y-51714560D01*
X60960000Y-52002461D01*
X60767631Y-51714560D01*
X60273210Y-51384199D01*
X59690000Y-51268191D01*
X59106790Y-51384199D01*
X58612369Y-51714560D01*
X58420000Y-52002461D01*
X58227631Y-51714560D01*
X57733210Y-51384199D01*
X57150000Y-51268191D01*
X56566790Y-51384199D01*
X56072369Y-51714560D01*
X55742008Y-52208981D01*
X55626000Y-52792191D01*
X55626000Y-53887809D01*
X55742008Y-54471019D01*
X56072369Y-54965440D01*
X56566790Y-55295801D01*
X57150000Y-55411809D01*
X57733210Y-55295801D01*
X58227631Y-54965440D01*
X58420000Y-54677539D01*
X58612369Y-54965440D01*
X59106790Y-55295801D01*
X59690000Y-55411809D01*
X60273210Y-55295801D01*
X60767631Y-54965440D01*
X60960000Y-54677539D01*
X60960000Y-59689995D01*
X60959999Y-59690000D01*
X61056673Y-60176008D01*
X61331974Y-60588026D01*
X62338948Y-61595000D01*
X22688972Y-61595000D01*
X23425957Y-61518174D01*
X23752522Y-61382906D01*
X23840560Y-61056640D01*
X22860000Y-60076080D01*
X22845858Y-60090223D01*
X22459778Y-59704143D01*
X22473920Y-59690000D01*
X23246080Y-59690000D01*
X24226640Y-60670560D01*
X24552906Y-60582522D01*
X24765595Y-59866736D01*
X24691051Y-59151640D01*
X30769440Y-59151640D01*
X30857478Y-59477906D01*
X31573264Y-59690595D01*
X32315957Y-59613174D01*
X32642522Y-59477906D01*
X32730560Y-59151640D01*
X31750000Y-58171080D01*
X30769440Y-59151640D01*
X24691051Y-59151640D01*
X24688174Y-59124043D01*
X24552906Y-58797478D01*
X24226640Y-58709440D01*
X23246080Y-59690000D01*
X22473920Y-59690000D01*
X22473920Y-59690000D01*
X21493360Y-58709440D01*
X21167094Y-58797478D01*
X20954405Y-59513264D01*
X21031826Y-60255957D01*
X21167094Y-60582522D01*
X21493358Y-60670559D01*
X21342484Y-60821433D01*
X20320000Y-59798948D01*
X20320000Y-58323360D01*
X21879440Y-58323360D01*
X22860000Y-59303920D01*
X23840560Y-58323360D01*
X23752522Y-57997094D01*
X23036736Y-57784405D01*
X22294043Y-57861826D01*
X21967478Y-57997094D01*
X21879440Y-58323360D01*
X20320000Y-58323360D01*
X20320000Y-57608264D01*
X29844405Y-57608264D01*
X29921826Y-58350957D01*
X30057094Y-58677522D01*
X30383360Y-58765560D01*
X31363920Y-57785000D01*
X32136080Y-57785000D01*
X33116640Y-58765560D01*
X33442906Y-58677522D01*
X33541038Y-58347266D01*
X34783508Y-58347266D01*
X35127152Y-59178946D01*
X35762907Y-59815812D01*
X36593986Y-60160906D01*
X37493866Y-60161692D01*
X38325546Y-59818048D01*
X38962412Y-59182293D01*
X39307506Y-58351214D01*
X39308292Y-57451334D01*
X38964648Y-56619654D01*
X38328893Y-55982788D01*
X37497814Y-55637694D01*
X36597934Y-55636908D01*
X35766254Y-55980552D01*
X35129388Y-56616307D01*
X34784294Y-57447386D01*
X34783508Y-58347266D01*
X33541038Y-58347266D01*
X33655595Y-57961736D01*
X33578174Y-57219043D01*
X33442906Y-56892478D01*
X33116640Y-56804440D01*
X32136080Y-57785000D01*
X31363920Y-57785000D01*
X31363920Y-57785000D01*
X30383360Y-56804440D01*
X30057094Y-56892478D01*
X29844405Y-57608264D01*
X20320000Y-57608264D01*
X20320000Y-56418360D01*
X30769440Y-56418360D01*
X31750000Y-57398920D01*
X32730560Y-56418360D01*
X32642522Y-56092094D01*
X31926736Y-55879405D01*
X31184043Y-55956826D01*
X30857478Y-56092094D01*
X30769440Y-56418360D01*
X20320000Y-56418360D01*
X20320000Y-56178060D01*
X20340432Y-56191852D01*
X20640000Y-56251928D01*
X22540000Y-56251928D01*
X22830548Y-56195555D01*
X23085913Y-56027808D01*
X23256852Y-55774568D01*
X23316928Y-55475000D01*
X23316928Y-52475000D01*
X23260555Y-52184452D01*
X23092808Y-51929087D01*
X22972902Y-51848150D01*
X23758023Y-51063028D01*
X23758026Y-51063026D01*
X24021052Y-50800000D01*
X78213948Y-50800000D01*
X78740000Y-51326051D01*
X78740000Y-51326051D01*
G37*
X78740000Y-51326051D02*
X78740000Y-52002461D01*
X78547631Y-51714560D01*
X78053210Y-51384199D01*
X77470000Y-51268191D01*
X76886790Y-51384199D01*
X76392369Y-51714560D01*
X76200000Y-52002461D01*
X76007631Y-51714560D01*
X75513210Y-51384199D01*
X74930000Y-51268191D01*
X74346790Y-51384199D01*
X73852369Y-51714560D01*
X73522008Y-52208981D01*
X73406000Y-52792191D01*
X73406000Y-53887809D01*
X73522008Y-54471019D01*
X73852369Y-54965440D01*
X74346790Y-55295801D01*
X74930000Y-55411809D01*
X75513210Y-55295801D01*
X76007631Y-54965440D01*
X76200000Y-54677539D01*
X76392369Y-54965440D01*
X76886790Y-55295801D01*
X77470000Y-55411809D01*
X78053210Y-55295801D01*
X78547631Y-54965440D01*
X78740000Y-54677539D01*
X78932369Y-54965440D01*
X79426790Y-55295801D01*
X80010000Y-55411809D01*
X80593210Y-55295801D01*
X81087631Y-54965440D01*
X81280000Y-54677539D01*
X81472369Y-54965440D01*
X81966790Y-55295801D01*
X82550000Y-55411809D01*
X83133210Y-55295801D01*
X83627631Y-54965440D01*
X83820000Y-54677539D01*
X83947000Y-54867608D01*
X83947000Y-56515000D01*
X84034006Y-56952407D01*
X84281777Y-57323223D01*
X86821777Y-59863223D01*
X87192593Y-60110994D01*
X87630000Y-60198000D01*
X100965000Y-60198000D01*
X101402407Y-60110994D01*
X101773223Y-59863223D01*
X104313223Y-57323223D01*
X104560994Y-56952407D01*
X104648000Y-56515000D01*
X104648000Y-56460029D01*
X104715567Y-56414882D01*
X104775000Y-56325934D01*
X104775000Y-59163948D01*
X102343948Y-61595000D01*
X65931052Y-61595000D01*
X64122692Y-59786640D01*
X66329440Y-59786640D01*
X66417478Y-60112906D01*
X67133264Y-60325595D01*
X67875957Y-60248174D01*
X68202522Y-60112906D01*
X68290560Y-59786640D01*
X67310000Y-58806080D01*
X66329440Y-59786640D01*
X64122692Y-59786640D01*
X63500000Y-59163948D01*
X63500000Y-58243264D01*
X65404405Y-58243264D01*
X65481826Y-58985957D01*
X65617094Y-59312522D01*
X65943360Y-59400560D01*
X66923920Y-58420000D01*
X67696080Y-58420000D01*
X68676640Y-59400560D01*
X69002906Y-59312522D01*
X69215595Y-58596736D01*
X69138174Y-57854043D01*
X69002906Y-57527478D01*
X68676640Y-57439440D01*
X67696080Y-58420000D01*
X66923920Y-58420000D01*
X66923920Y-58420000D01*
X65943360Y-57439440D01*
X65617094Y-57527478D01*
X65404405Y-58243264D01*
X63500000Y-58243264D01*
X63500000Y-57053360D01*
X66329440Y-57053360D01*
X67310000Y-58033920D01*
X68290560Y-57053360D01*
X68202522Y-56727094D01*
X67486736Y-56514405D01*
X66744043Y-56591826D01*
X66417478Y-56727094D01*
X66329440Y-57053360D01*
X63500000Y-57053360D01*
X63500000Y-54982656D01*
X63576020Y-55091566D01*
X64239618Y-55451563D01*
X64497000Y-55279450D01*
X64497000Y-53613000D01*
X65043000Y-53613000D01*
X65043000Y-55279450D01*
X65300382Y-55451563D01*
X65963980Y-55091566D01*
X66040000Y-54982656D01*
X66116020Y-55091566D01*
X66779618Y-55451563D01*
X67037000Y-55279450D01*
X67037000Y-53613000D01*
X65043000Y-53613000D01*
X64497000Y-53613000D01*
X64497000Y-53613000D01*
X64477000Y-53613000D01*
X64477000Y-53067000D01*
X64497000Y-53067000D01*
X64497000Y-51400550D01*
X65043000Y-51400550D01*
X65043000Y-53067000D01*
X67037000Y-53067000D01*
X67037000Y-51400550D01*
X67583000Y-51400550D01*
X67583000Y-53067000D01*
X67603000Y-53067000D01*
X67603000Y-53613000D01*
X67583000Y-53613000D01*
X67583000Y-55279450D01*
X67840382Y-55451563D01*
X68503980Y-55091566D01*
X68684162Y-54833429D01*
X68772369Y-54965440D01*
X69266790Y-55295801D01*
X69850000Y-55411809D01*
X70433210Y-55295801D01*
X70927631Y-54965440D01*
X71257992Y-54471019D01*
X71374000Y-53887809D01*
X71374000Y-52792191D01*
X71257992Y-52208981D01*
X70927631Y-51714560D01*
X70433210Y-51384199D01*
X69850000Y-51268191D01*
X69266790Y-51384199D01*
X68772369Y-51714560D01*
X68684162Y-51846571D01*
X68503980Y-51588434D01*
X67840382Y-51228437D01*
X67583000Y-51400550D01*
X67037000Y-51400550D01*
X67037000Y-51400550D01*
X66779618Y-51228437D01*
X66116020Y-51588434D01*
X66040000Y-51697344D01*
X65963980Y-51588434D01*
X65300382Y-51228437D01*
X65043000Y-51400550D01*
X64497000Y-51400550D01*
X64497000Y-51400550D01*
X64239618Y-51228437D01*
X63576020Y-51588434D01*
X63395838Y-51846571D01*
X63307631Y-51714560D01*
X62813210Y-51384199D01*
X62230000Y-51268191D01*
X61646790Y-51384199D01*
X61152369Y-51714560D01*
X60960000Y-52002461D01*
X60767631Y-51714560D01*
X60273210Y-51384199D01*
X59690000Y-51268191D01*
X59106790Y-51384199D01*
X58612369Y-51714560D01*
X58420000Y-52002461D01*
X58227631Y-51714560D01*
X57733210Y-51384199D01*
X57150000Y-51268191D01*
X56566790Y-51384199D01*
X56072369Y-51714560D01*
X55742008Y-52208981D01*
X55626000Y-52792191D01*
X55626000Y-53887809D01*
X55742008Y-54471019D01*
X56072369Y-54965440D01*
X56566790Y-55295801D01*
X57150000Y-55411809D01*
X57733210Y-55295801D01*
X58227631Y-54965440D01*
X58420000Y-54677539D01*
X58612369Y-54965440D01*
X59106790Y-55295801D01*
X59690000Y-55411809D01*
X60273210Y-55295801D01*
X60767631Y-54965440D01*
X60960000Y-54677539D01*
X60960000Y-59689995D01*
X60959999Y-59690000D01*
X61056673Y-60176008D01*
X61331974Y-60588026D01*
X62338948Y-61595000D01*
X22688972Y-61595000D01*
X23425957Y-61518174D01*
X23752522Y-61382906D01*
X23840560Y-61056640D01*
X22860000Y-60076080D01*
X22845858Y-60090223D01*
X22459778Y-59704143D01*
X22473920Y-59690000D01*
X23246080Y-59690000D01*
X24226640Y-60670560D01*
X24552906Y-60582522D01*
X24765595Y-59866736D01*
X24691051Y-59151640D01*
X30769440Y-59151640D01*
X30857478Y-59477906D01*
X31573264Y-59690595D01*
X32315957Y-59613174D01*
X32642522Y-59477906D01*
X32730560Y-59151640D01*
X31750000Y-58171080D01*
X30769440Y-59151640D01*
X24691051Y-59151640D01*
X24688174Y-59124043D01*
X24552906Y-58797478D01*
X24226640Y-58709440D01*
X23246080Y-59690000D01*
X22473920Y-59690000D01*
X22473920Y-59690000D01*
X21493360Y-58709440D01*
X21167094Y-58797478D01*
X20954405Y-59513264D01*
X21031826Y-60255957D01*
X21167094Y-60582522D01*
X21493358Y-60670559D01*
X21342484Y-60821433D01*
X20320000Y-59798948D01*
X20320000Y-58323360D01*
X21879440Y-58323360D01*
X22860000Y-59303920D01*
X23840560Y-58323360D01*
X23752522Y-57997094D01*
X23036736Y-57784405D01*
X22294043Y-57861826D01*
X21967478Y-57997094D01*
X21879440Y-58323360D01*
X20320000Y-58323360D01*
X20320000Y-57608264D01*
X29844405Y-57608264D01*
X29921826Y-58350957D01*
X30057094Y-58677522D01*
X30383360Y-58765560D01*
X31363920Y-57785000D01*
X32136080Y-57785000D01*
X33116640Y-58765560D01*
X33442906Y-58677522D01*
X33541038Y-58347266D01*
X34783508Y-58347266D01*
X35127152Y-59178946D01*
X35762907Y-59815812D01*
X36593986Y-60160906D01*
X37493866Y-60161692D01*
X38325546Y-59818048D01*
X38962412Y-59182293D01*
X39307506Y-58351214D01*
X39308292Y-57451334D01*
X38964648Y-56619654D01*
X38328893Y-55982788D01*
X37497814Y-55637694D01*
X36597934Y-55636908D01*
X35766254Y-55980552D01*
X35129388Y-56616307D01*
X34784294Y-57447386D01*
X34783508Y-58347266D01*
X33541038Y-58347266D01*
X33655595Y-57961736D01*
X33578174Y-57219043D01*
X33442906Y-56892478D01*
X33116640Y-56804440D01*
X32136080Y-57785000D01*
X31363920Y-57785000D01*
X31363920Y-57785000D01*
X30383360Y-56804440D01*
X30057094Y-56892478D01*
X29844405Y-57608264D01*
X20320000Y-57608264D01*
X20320000Y-56418360D01*
X30769440Y-56418360D01*
X31750000Y-57398920D01*
X32730560Y-56418360D01*
X32642522Y-56092094D01*
X31926736Y-55879405D01*
X31184043Y-55956826D01*
X30857478Y-56092094D01*
X30769440Y-56418360D01*
X20320000Y-56418360D01*
X20320000Y-56178060D01*
X20340432Y-56191852D01*
X20640000Y-56251928D01*
X22540000Y-56251928D01*
X22830548Y-56195555D01*
X23085913Y-56027808D01*
X23256852Y-55774568D01*
X23316928Y-55475000D01*
X23316928Y-52475000D01*
X23260555Y-52184452D01*
X23092808Y-51929087D01*
X22972902Y-51848150D01*
X23758023Y-51063028D01*
X23758026Y-51063026D01*
X24021052Y-50800000D01*
X78213948Y-50800000D01*
X78740000Y-51326051D01*
G36*
X98494043Y-48971826D02*
X98167478Y-49107094D01*
X98079440Y-49433360D01*
X99060000Y-50413920D01*
X100040560Y-49433360D01*
X99952522Y-49107094D01*
X99238738Y-48895000D01*
X104248948Y-48895000D01*
X104775000Y-49421051D01*
X104775000Y-52894066D01*
X104715567Y-52805118D01*
X104318659Y-52539913D01*
X104313223Y-52531777D01*
X103942407Y-52284006D01*
X103505000Y-52197000D01*
X103067593Y-52284006D01*
X102696777Y-52531777D01*
X102691341Y-52539913D01*
X102294433Y-52805118D01*
X102235000Y-52894066D01*
X102175567Y-52805118D01*
X101778659Y-52539913D01*
X101773223Y-52531777D01*
X101402407Y-52284006D01*
X100965000Y-52197000D01*
X100527593Y-52284006D01*
X100156777Y-52531777D01*
X100151341Y-52539913D01*
X99754433Y-52805118D01*
X99383318Y-53360531D01*
X99253000Y-54015685D01*
X99253000Y-55204315D01*
X99380957Y-55847597D01*
X99221554Y-56007000D01*
X98828450Y-56007000D01*
X99032000Y-55433000D01*
X99032000Y-54883000D01*
X97428000Y-54883000D01*
X97428000Y-54903000D01*
X96882000Y-54903000D01*
X96882000Y-54883000D01*
X96862000Y-54883000D01*
X96862000Y-54337000D01*
X96882000Y-54337000D01*
X96882000Y-52437558D01*
X97428000Y-52437558D01*
X97428000Y-54337000D01*
X99032000Y-54337000D01*
X99032000Y-53787000D01*
X98784649Y-53089484D01*
X98289199Y-52539720D01*
X98228461Y-52511026D01*
X98883264Y-52705595D01*
X99625957Y-52628174D01*
X99952522Y-52492906D01*
X100040560Y-52166640D01*
X99060000Y-51186080D01*
X98079440Y-52166640D01*
X98164172Y-52480656D01*
X97715144Y-52268529D01*
X97428000Y-52437558D01*
X96882000Y-52437558D01*
X96882000Y-52437558D01*
X96594856Y-52268529D01*
X96020801Y-52539720D01*
X95885000Y-52690408D01*
X95885000Y-50623264D01*
X97154405Y-50623264D01*
X97231826Y-51365957D01*
X97367094Y-51692522D01*
X97693360Y-51780560D01*
X98673920Y-50800000D01*
X99446080Y-50800000D01*
X100426640Y-51780560D01*
X100752906Y-51692522D01*
X100965595Y-50976736D01*
X100888174Y-50234043D01*
X100752906Y-49907478D01*
X100426640Y-49819440D01*
X99446080Y-50800000D01*
X98673920Y-50800000D01*
X98673920Y-50800000D01*
X97693360Y-49819440D01*
X97367094Y-49907478D01*
X97154405Y-50623264D01*
X95885000Y-50623264D01*
X95885000Y-50056052D01*
X97046051Y-48895000D01*
X99231028Y-48895000D01*
X98494043Y-48971826D01*
X98494043Y-48971826D01*
G37*
X98494043Y-48971826D02*
X98167478Y-49107094D01*
X98079440Y-49433360D01*
X99060000Y-50413920D01*
X100040560Y-49433360D01*
X99952522Y-49107094D01*
X99238738Y-48895000D01*
X104248948Y-48895000D01*
X104775000Y-49421051D01*
X104775000Y-52894066D01*
X104715567Y-52805118D01*
X104318659Y-52539913D01*
X104313223Y-52531777D01*
X103942407Y-52284006D01*
X103505000Y-52197000D01*
X103067593Y-52284006D01*
X102696777Y-52531777D01*
X102691341Y-52539913D01*
X102294433Y-52805118D01*
X102235000Y-52894066D01*
X102175567Y-52805118D01*
X101778659Y-52539913D01*
X101773223Y-52531777D01*
X101402407Y-52284006D01*
X100965000Y-52197000D01*
X100527593Y-52284006D01*
X100156777Y-52531777D01*
X100151341Y-52539913D01*
X99754433Y-52805118D01*
X99383318Y-53360531D01*
X99253000Y-54015685D01*
X99253000Y-55204315D01*
X99380957Y-55847597D01*
X99221554Y-56007000D01*
X98828450Y-56007000D01*
X99032000Y-55433000D01*
X99032000Y-54883000D01*
X97428000Y-54883000D01*
X97428000Y-54903000D01*
X96882000Y-54903000D01*
X96882000Y-54883000D01*
X96862000Y-54883000D01*
X96862000Y-54337000D01*
X96882000Y-54337000D01*
X96882000Y-52437558D01*
X97428000Y-52437558D01*
X97428000Y-54337000D01*
X99032000Y-54337000D01*
X99032000Y-53787000D01*
X98784649Y-53089484D01*
X98289199Y-52539720D01*
X98228461Y-52511026D01*
X98883264Y-52705595D01*
X99625957Y-52628174D01*
X99952522Y-52492906D01*
X100040560Y-52166640D01*
X99060000Y-51186080D01*
X98079440Y-52166640D01*
X98164172Y-52480656D01*
X97715144Y-52268529D01*
X97428000Y-52437558D01*
X96882000Y-52437558D01*
X96882000Y-52437558D01*
X96594856Y-52268529D01*
X96020801Y-52539720D01*
X95885000Y-52690408D01*
X95885000Y-50623264D01*
X97154405Y-50623264D01*
X97231826Y-51365957D01*
X97367094Y-51692522D01*
X97693360Y-51780560D01*
X98673920Y-50800000D01*
X99446080Y-50800000D01*
X100426640Y-51780560D01*
X100752906Y-51692522D01*
X100965595Y-50976736D01*
X100888174Y-50234043D01*
X100752906Y-49907478D01*
X100426640Y-49819440D01*
X99446080Y-50800000D01*
X98673920Y-50800000D01*
X98673920Y-50800000D01*
X97693360Y-49819440D01*
X97367094Y-49907478D01*
X97154405Y-50623264D01*
X95885000Y-50623264D01*
X95885000Y-50056052D01*
X97046051Y-48895000D01*
X99231028Y-48895000D01*
X98494043Y-48971826D01*
M02*
