M48
;DRILL file {KiCad (2015-07-07 BZR 5906)-product} date Tue 25 Aug 2015 18:29:17 CEST
;FORMAT={-:-/ absolute / metric / decimal}
FMAT,2
METRIC,TZ
T1C0.800
T2C2.500
%
G90
G05
M71
T1
X15.875Y-59.69
X16.51Y-53.975
X19.05Y-53.975
X19.725Y-64.89
X19.725Y-79.39
X21.59Y-53.975
X22.225Y-79.39
X22.225Y-84.455
X22.86Y-59.69
X24.725Y-64.89
X24.725Y-79.39
X31.75Y-57.785
X31.75Y-67.945
X31.75Y-84.455
X33.655Y-91.52
X33.655Y-96.52
X42.545Y-88.9
X43.815Y-101.6
X43.815Y-109.855
X45.085Y-88.9
X47.625Y-88.9
X48.006Y-101.6
X50.165Y-88.9
X50.546Y-101.6
X52.705Y-88.9
X53.086Y-101.6
X55.245Y-88.9
X55.626Y-101.6
X57.15Y-53.34
X57.785Y-88.9
X58.166Y-101.6
X59.69Y-53.34
X60.325Y-88.9
X60.706Y-101.6
X62.23Y-53.34
X62.865Y-88.9
X63.246Y-101.6
X64.77Y-53.34
X65.405Y-88.9
X65.786Y-101.6
X67.31Y-53.34
X67.31Y-58.42
X67.31Y-71.755
X67.945Y-88.9
X69.85Y-53.34
X69.85Y-101.6
X70.485Y-88.9
X72.39Y-101.6
X73.025Y-88.9
X74.93Y-53.34
X74.93Y-101.6
X75.565Y-88.9
X77.47Y-53.34
X77.47Y-101.6
X78.105Y-88.9
X80.01Y-53.34
X80.01Y-101.6
X80.645Y-88.9
X82.55Y-53.34
X82.55Y-101.6
X85.09Y-53.34
X85.09Y-101.6
X87.63Y-53.34
X87.63Y-101.6
X92.075Y-54.61
X94.615Y-54.61
X97.155Y-54.61
X99.06Y-50.8
X100.965Y-54.61
X103.505Y-54.61
X106.045Y-54.61
X108.585Y-54.61
X112.395Y-50.8
T2
X37.046Y-57.899
X37.046Y-88.9
X112.044Y-57.899
X112.044Y-88.9
T0
M30
